<mxfile host="Electron" agent="Mozilla/5.0 (X11; Linux x86_64) AppleWebKit/537.36 (KHTML, like Gecko) draw.io/24.7.17 Chrome/128.0.6613.36 Electron/32.0.1 Safari/537.36" version="24.7.17">
  <diagram name="Page-1" id="p_TVwBKyIH2KDaj98x08">
    <mxGraphModel dx="566" dy="478" grid="1" gridSize="10" guides="1" tooltips="1" connect="1" arrows="1" fold="1" page="1" pageScale="1" pageWidth="827" pageHeight="1169" background="#ffffff" math="0" shadow="0">
      <root>
        <mxCell id="0" />
        <mxCell id="1" parent="0" />
        <mxCell id="ixr-vEUPFZz1RlNf7RGq-1" value="" style="endArrow=none;html=1;rounded=0;strokeColor=#000000;" edge="1" parent="1">
          <mxGeometry width="50" height="50" relative="1" as="geometry">
            <mxPoint x="360" y="440" as="sourcePoint" />
            <mxPoint x="360" y="190" as="targetPoint" />
          </mxGeometry>
        </mxCell>
        <mxCell id="ixr-vEUPFZz1RlNf7RGq-2" value="&lt;font color=&quot;#000000&quot;&gt;Configuration de la VM &lt;b&gt;avant dÃ©ploiement&lt;/b&gt;&lt;/font&gt;" style="text;strokeColor=none;align=center;fillColor=none;html=1;verticalAlign=middle;whiteSpace=wrap;rounded=0;" vertex="1" parent="1">
          <mxGeometry x="140" y="200" width="180" height="30" as="geometry" />
        </mxCell>
        <mxCell id="ixr-vEUPFZz1RlNf7RGq-3" value="&lt;font color=&quot;#000000&quot;&gt;Configuration des packages et applicatifs&lt;/font&gt;" style="text;strokeColor=none;align=center;fillColor=none;html=1;verticalAlign=middle;whiteSpace=wrap;rounded=0;" vertex="1" parent="1">
          <mxGeometry x="400" y="200" width="180" height="30" as="geometry" />
        </mxCell>
        <mxCell id="ixr-vEUPFZz1RlNf7RGq-4" value="" style="shape=image;aspect=fixed;image=data:image/png,iVBORw0KGgoAAAANSUhEUgAABAYAAADPCAYAAABm8tO2AAAABHNCSVQICAgIfAhkiAAAIABJREFUeJzs3Xd4XMXZ/vHv7MpyBdwk2ca2JGPTTDeEGkpCDS3YFjUkkAJpvxRILy8QSAKBhJd04A0hIaFJMoRmICQ4CS30ZqptSS5Ykm2wMa6Sdn5/jAwusqSdnd1zzur+XNdegK05eyPtas95zswzBsm7BTVjB6ZT6aqSdqqtoQpMubV2hDFmBDACKAO26/zywUBp57/3B9YBK4F2DMsNdFjsCotZbzJ2mSE136bsImtTC0yHXdDG+oVj71i0rND/jyIiIiIiIpJMJuoAxeSdj1cNbSsxu1syu2PNnhh2AyYAowocZQ0wH+xL1vA8Nv1Cv0zq+REz5iwscA4RERERERGJORUGPNka0kuo2h3MITZjDwQOwlAVda7u2aUYnsfyPPB4/1L78NCb578TdSoRERERERGJjgoDWXjrtMpd0hmOA3M0loOAbaLOlKMOY3g2k+EfmMxDa4akHq2+sXFt1KFERERERESkcFQY6Mabx03sv83gzFGGzPFYjo3/jICcrcHYR4GZ7emS2u1vnbsg6kAiIiIiIiKSXyoMbMYtEZhwYMZmagycgWsM2EeZZ6yxN6XgtvLaxuao04iIiIiIiEh4Kgx0WjK1cp+MMZ/FcBowPOo8MdMB/MNYe1u/DjNj2J2Ny6MOJCIiIiIiImH06cLAkpN22ibTf/0ZwCex9uCo8yTEWqyttan0laNq570UdRgRERERERHJTZ8sDLScNm4H2576mjGcA2ZI1HkSygIPY/lVearxblNLR9SBREREREREJHt9qjDQUlN5IKQuxNpTgFTUeYqGpZGU+W0/zHXDa+etiDqOiIiIiIiI9F6fKAw011R+xFguAXNI1FmK3DsWe1XKDPllee3s96IOIyIiIiIiIj0r6sJAS03lgdjUpWA/GnWWPmaZgSvXmfZfjqtduCbqMCIiIiIiIrJ1RVkYaDmlek9K7BVYjok6Sx/3lrH2J0tSQ66fXDt7fdRhREREREREZEtFVRhYXDOxLJVpvwzDZ4B01HnkfQ3WmK+Nqm24K+ogIiIiIiIisqmiKAzY86b0a3ln2RddHwG2izqPdM1g78kYvjKqtqkh6iwiIiIiIiLiJL4w4PoImOuByVFnkV5ZA/zs3VUlP500c866qMOIiIiIiIj0dYktDCw6ccygdP/S/zHwDbRsIIHsHKz5ckV94wNRJxEREREREenLElkYaJlefTTY64DKqLNITiyW37evX/+N7e9+a3XUYURERERERPqiRBUGGs6pGjDwPS428E0gFXUeCcPCa+mMPatsRtOzUWcRERERERHpaxJTGFhcM37XFKmbsewZdRbJB9sO5sflpvFSU0tH1GlERERERET6ikQUBlqnVX3FGq4ABkSdRXJh28E0AJO29hXG8HBbOv2p7W+du6CAwURERERERPqsWE/Hbz67YnDL9KqbreEaVBRIOmus+Wz58BGTMfZC4N0uv8hyREl7x/Ouj4SIiIiIiIjkW2xnDLTW7DDR2o4ZwO5RZ5EQzDcr6hqu2vBfrTVVo2yGSzB8lq4LVB0Gvl9e13hF4TKKiIiIiIj0PbEsDLROrzzOYm4GhkadRXJnLZePqm/8bld/1zJ1/MGkze+xZrcux8INK1eVfHHSzDnr8ptSRERERESkb4rdUoLm6dWftXAXKgoUiz9V1Dd+b2t/WTFj/qNkeG5rf2/g09sObv9na03VqPzEExERERER6dtiM2PAXkSqdXblFWC+EXUWCWZGuWk8tbtdBt48bmL/bQe3twDb9XCs+cZwcnlt4/NhI4pEaiiwGzAF2BWYDNwNaAmNiEjPtgX24IPfn1OAp4CvRxlKRCSJSqIOALCgZuzA1lf63QR2WtRZJJh/vruq5MyKmd1vPbjN4PZj6bkoADDeWma11kw4obx23iNhIooU1BjcSeuGx65ANVsWaB8qcC4RkSTY8Dt04yLAzmw5+3V2gXOJiBSFyAsDzWdXDDZr03di7ZFRZ5EwLPbp9PoBH5808/Ue+wKk4HTb+0NvZ23mgZZpVVMr6hsfyCWjSIFMBb6NmxUwKOIsIiJJcwRwKa4R9bYRZxERKWqR9hh45+NVQ82agQ9ijYoCRcPOMf1SJ5Td9frKnr5y0YljBlnsCVk+wSAMd7XWVE/3DChSSHsAH0JFARERH5OAg1FRQEQk7yIrDCw/c/yw9SU8ABwUVQYJblGmxBxVcUtDS2++uN+A/h8DM8TjeUqttbe2Tq8612OsiIiIiIiIbCSSwsCiM3Ycua7N/Bt3J02Kw7KMyRw9+tbGxt4OsNaemsPzpS38X0tN1RdyOIaIiIiIiEifV/DCwNs1E7YraWu7f2v71ksirQZ70uja+a/0dkDz2RWDgY/l+LwpLL9prqn8TI7HERERERER6bMKWhhYdOKYQW02czfYKYV8XsmrNmOYVlHX9FhWo1YPPAkYHOD5jbHm2pZpldrRQkRERERExEPBCgMLasYO7Deg9B7gw4V6Tsm7jLHmE+W1jfdnO9CkyGUZwebSGHNT69TqQwMeU0REREREpE8oSGHAXkSqlH43WcsRhXi+xDE8EXUEL5Yvldc33J7tsGVnTdwWy7GB0wy0KXtXa03VXoGPKyIiIiIiUtRKCvEkrbOrfwZWU723IoU5J2PsjVgOiDpLb1nMD0fVN/zeZ2z7uo6PAwMCRwLYzloeXFJT/eGy2obX83B8ERERkb6oGtgFKAPWAs3AU8DqKENJ0RgJ7IN7fQG0As8BSyNL1AflvTDQMr3yi2AvzPfzJNn6dGp1v46OUyw8AVRGnacnFn45qq7hMt/xhkyNxYSMtLGyjM3cs/zM8R8aevP8d/L1JCIiIiJFrhT4HPAlXFFgc2uBB4HLcEUCkWwY4GTgW8D+bDmTPYO7NvoZcBdgC5quD8rrUoLWaZUfA/PLfD5HMRiw3tjy2sbmjM0cD6yIOk/3zF8rJjd+3Xf08jPHD7OYo0Mm2pKZuG596mZbQzq/zyMiIiJSlHYGXgB+TddFAXCzP08C/tv5df0KE02KwAjgAeAO4EC6viZNAQcBdwL3d46RPMpbYaB12oRJ1pi/gi7OepIpXZcBGF0/f3YGPg6sjzjS1vx9qRn0aXMJGd8DrF9nTsFVoPPt2BZbdWkBnkdERESkmOyLu9jfuZdfb3CzCu5FxQHpWQVuJsBRWYw5unNMeV4SCZCnwkDz2RWDbapjBjA0H8cvOutT70+NGV3XOMtY+4Uo43TJ8IQduOaUybWzcypaWGNOCxWpJwa+0zqtOuTuByIiIiLFbDTwN2Bbj7FHAZopLN0pxc0SmOgxdmLnWBWf8iQvhQGzZuBvsWa3fBy7GNm02WTNTHl90w3WcnlUebZg7MvraT9+1E0tq3I5zKIzdhwJ9iOhYvWCsSbzh+ZTdtBrUURERKRnPwLG5DD+fGC/QFmk+Hwat3TA10HAOWGiyOaCFwaaa6q+Cnwy9HGLmS0xWzTTqKhv/J6x3BZFns3MS3Vw9LjahW/neqCS9rapYAqyE8YHzBCT7pjxzserNHtFREREZOu2Bz6V4zEM8O0AWaT4GOC7AY7zvc5jSWBBCwOLp42fbOJ0pzshMu3pLdbsG7CrtuEc4LHCJ3rfkpQxHyub0bQ4yNGsLdgygs1MWp/mNxE9t4iIiEgSHEOYadrHUph+UpIsewDjAxynCpgc4DiymWCFgYZzqgakTOpm8rM/fVHLlKS63H6j+sbGtW0dbScBbxY4EsC7xtpjymobXg9xsMU1E8vAHhriWF4MZzbXVEVVmBARERGJuw8HOs5gYK9Ax5LiEer1BRDdNUURC1YYGLjSXomrBEmW7NpVW92Xc+wdi5aR7jgOWFLASGtMxpxYXt/0XKgDpjNtpxZ+GcGmjOX3y6ZOHBtlBhEREZGYGhXwWKMDHkuKQzG+vkpxsxc+CVwDPALcHGmiHAS5UGutqTrWWr4U4liypYrbFsxtnVo93absg0D//D6bbbc2dVrFjIZ/Bz1qypzKVssfBTO0PdV+nYXjDTFIIyIiIhIfIfsxDQt4LCkOSX99VeJugu/Z+dgLmMCWN9pz7ssWlZxnDDSfXTHYWn6LmkB4GzJwyx4Dmyuf0fBva/gU+b2gtcZy/qj6hrtDHnTJ1MrRWA4JecwcHNc6rer8qEOIiIiIxMx7AY+1MuCxpDgk8fW1F/Aw7mK/EbgLuBSYjts+MS87/EUl9/+Z1QMuB6pzjyI9GVXbeBuGi/P2BMZ+o7y+6YbQh+1Im1OJ0xvHcFVrzQ4++6eKiIiIFKuQy1ZbAx5LikMSX1/jgMPpIzNgcrpYa55adYAx5ouhwvRVmbaSHmcMbFBe23gp8KfQGQzmJxW1Tb8IfVwAY4lb07/BlvbfRR1CREREJEaeDHSc9UCwPlVSNEK9vgD+G/BY0sm7MPDmcRP7pww35HIMyZ4Bu9QMPs/ArHBHtdeX1TX8INzxPvBWzYTxwAH5OHZOrDmyZVrVx6OOISIiIhIT9wc6zqOEnTYuxeEJYHmA47xD2CKDdPK+qN92cPtXrWGXkGH6qo51/Xo9YwBgcu3s9en+JSdj7MsBnv5v5UubvpivZnxpa08lrv0nDNcsOnHMoKhjiIiIiMTAa8C9AY7z8wDHkOLTBvwywHGuAdoDHEc241UYaD5lh3Lge4Gz9Fm2f0nWF+Uj/jrnXQsnAS2+z2sMD68ewulmVv7eXJZM3JYRbGx8Sf/+F0YdQkRERCQmvgusyWH83wlTXJDi9AugKYfxjcDVYaLI5rwKA6lU5ifAdoGz9FmZAUu97taPqm1qSNnUCcDqbMda7NNmXf+Tq29sXOvz3L3RPHX8BIOZkq/jh2G/u/j0qqqoU4iIiIjEwEvAOUBWs1k7zQFOD5pGis0K3I1Nn10FVgInA+8GTSTvy7ow0FpTtZc19pw8ZOmzOpanvafxl9XPe9oY8ymy+gVu55h+qRPK7no9r1t9pFKp04jrMoIPDEy12yujDiEiIiISE7cDJ5LdevBHgA+T4D3cpWBeBA4B5mUxZi5wcOdYyZOsCwMWeyWQzkMW8VRe21CHm/rVC3Zhh0l/tOKWBu8lCL1loSbfzxGGmd4ydfzBUacQERERiYn7gD2AP+DWhm/NfOB84AiguQC5pDi8COwN/IjuZwC8C1wC7IObzSJ5VJLNF7fWTDjE2syR+QrTV60fUeozXWsTFXWNP2uZXl0JtrvtI5dljD1mTO28+bk+X0+WnDZhx0xHZu98P08wqdT/AMdEHUNEREQkJhYAnwUuAI4EJgNlwFrgLdzuA8/gt+xA5F3gIuAnuNkm+wIVnX/XDDyNm4myLpJ0fVBWhYGMzVwW93nhSdTekn3zwa6Um4avLLGV4y3mhC7+ejXYk0bXzn8lxHP1JNNh49x0sCtHt9ZMOKS8dt4jUQcRERERiZF3gRmdD5HQ1gEPdT4kQr1eStAyvfpoA4flM0xftX5I/yCFAVNLh1k/4EwML2z+FMYwraKu6bEQz9M7iSsMYMn8IOoMIiIiIiIihZZFjwF7cd5ShLUceBFsn9zfsuyu11e2p9Mn4qZ4AWSMNWeX1zbeX6gMi2vG74qbbpYslmNaaioPjDqGiIiIiIhIIfWqMNA6tfpQIBEXTAb764q6xj3Lh48clLGZ3TDmfKy9CXiFmK6B2nXJ7KC5tr917oJUxp4I9j1j+Xp5fcPtIY/fk5Q1yd2qxpr/iTqCiIiIiIhIIfWqx4BN2QvyHSSQjnaTvh7AXPdMGzC783EdwNs1E7Zb19GxTypl9gP2xbIfhqrI0uZR2YymZxefXrX76FsbGwv93BZTk+BeFIe11uwwsbx27pyog4iIiIiIiBRCj4WB1mkTJlkyJxYiTAB3dddxf3jtvBXAw50PwBUL2mH3DJkpJmOnYMwhQHUBsn7gMDLMCn/YKIoCrTVVe1nLzoV+3pxYGoEHjTEPmfWl95fd9frKqCOJiIiIiIgUSo+FAWsyF5BVL4IIGfO7bId0Fgse6XwAsOT0cWM62kqmGGOnGOwUi/kQUB4w6aYuIUjzwTjIWE5NwGyBDox5wlh7tzGZh0bWzX/WUDw/AxERERERkWx0Wxh4u2bCdm0288lChcmJ5Y3yuoYg21yU3brgLVzzvrs3/Fnz1PETUia9rzWZ/QxmXwv7ANuGeL5iuig12BqIZWlgkcHOtDAztX7A3zUrQERERERExOm2MNBmO84CM6hQYXJizFP5PPyoGfPnAfOA2wHsRaQWv1a5UzqT2tdau6+B/YC9gIFZHrpoigJLasZPyVgzMeocnTrAPm4w92GYWVbb+EIxFWBERERERERC6WEpgflsYWKEYM9qramuWpIyny67bd4b+X42cwkZaHoVeBW4CcDWkG7OjN85ZdJTLHaKMWYK1k4BBnQXPN9ZCyUT+W4EdimYh8Hc07+04+6hN89/J9o8IiIiIiIi8bfVwsDiqRP2g8zehQyTM2sPznTY51unV11SZhqvMrV0FPLp3fPN37ATwp8B7HlT+jUvW7LjZsWC/YDSDakLmTFfLJhWa6YXeBVBBsxzFvtQyqTuKdt13mOuYCMiIiIiIiK9tdXCQCrV8bmYrhXvyUALl7faquNbp6U+U14/780ow2y2beKfAVprJg/Brt47Y+2+xth9oswXSsvUqv1NYbZ+fNvAgxYz03ak7h91x9zWAjyniIiIiIhI0eqyMDC7ZnIpdtX0QocJ7MPWZF6IavZAd8prZ78H/KfzURRSKU7L49SHeRbuIZO6u2LksH91FltEREREREQkgC4LAyPsmqOBYQXOkg8bZg+cvHQanx5Z3/ha1IGKkb2IVOtsOz3gDJOVwN8tZmaJaZs5snbholAHzkbDOVUDBq8yny2vbfh1FM8vIiIiIiJSCF0WBgw24iZywR3YYXiuZXrVFeXDR/xYd5zDWjK7+mCwY3M8zDwsD1nMPStXpx+cNHPOuiDhPDVPq9o/tZI/WmN3WTqt6iEVlUREREREpFhtURhoOKdqAO/ZE6MIk2cDgIta31n28dZpleeW1zc9F3WgYmHhNI9hazD2UWPNQynL3+Jy4d1wTtWAge9xsYFvWEgDtBs7FfhJxNFERERERETyYovCwMD3OAbYNoIshWHZ0xrzeHNN5aUVS5quMLNojzpSktka0q3WTuvdFzPXGntfypj7Vg1mVvWNTWvzHC8rzVOrDkit5AZr2GXjPzfGTEOFARERERERKVJbFAZS2BNsMncjyEZ/Y81lrWVVU1ummXMr6htejDpQUjV3VB6aSjFqK3+9Dvi3hfvS6dR9ZbfNe6OQ2XprQc3YgaU2/SPg6xtmCWzCss9bU6srx8xoaCp8OhERERERkfzaojBgMUdHESQSln0wmWeap1f9fOWqkouiXteeRKmU2XwZQQvWPmhM6u50//QDI/46591IgvVS89SqA7D8Edi5u69LpzkGuK4wqfokA4wFJgGVuKU/2wJDNvp3gPeANsACy4F3Oh9vA4uBBbjmlVIcDDAe2LHzn4M6H8OAgUB/3OtgFbAa97NfBrwJvAHEalaSSEKUAOOA4cBg3Httw+/jNLACaMe939YDrUATsCaKsCIxMATot9E/NxiK+xzb8H5Zi3ufrMK9d0RiZZPCQHPNhN2xmfFRhYmGKTHw7W2HtB2/ZNqEc8vq5z0ddaKksIdT0gongXkG7D0pk7l7ZO38Z427aIu1jXsJ0NUsgc1Zq8JAOCXAPsDhwP64YsBE3MlnCCtwJ6mvAa90Pl7EXSjG/rXZx00GPgocgisG7Ij/6yIDzMf93J8D/gE8iisgiIizK/BhYKfOxySgik0vbnprCe491wg8AzzR+c9Y3yAQ6UIad7NiXOc/t+/89+1xBbPtcAXq7TofXTZz70EbsBB3vtKEe9804N4zr+A+w0QKapMXsrGZ46IKEjlrdsuYjsdbp1VfsWJ1+lLNHujZnIET0yNMZpfhtfNWRJ0lGy3TKw9iJX/EsGMWw460503ppx0tvG2Pa1L5EdxJaD77mGwH7NH52Nhy4L+4k9V/Ao+BeoxEbBBwCnAcriCwtWVJPlK4C5wq4Gjg27jlTY8DDwG3AnMDPl9c9GPL135P2nDFs2I0Bhid5ZjFwFt5yBIHY3Hvh490PrL93nSnrPMxBdjQeygDvArcC9QDT6ECbVJUAiOzHNMELM1DlnwaB+yFK0zvhiuW7YqbkZZP/YDqzsfmVuA+qx4HZgGPUHyFgpG411g2luJeY3E3FPd7MM66/NzfpJlAy/Sqf+A+KPq62ZlM6tzRM+Y9FXUQCWdBzdiBpZl+l2Hs13AXDVkxmEPL6xr+k4doxWoAcDJwDnAUvZmZUVjv4i4Qa4G/kZ9psBcDF2U55pLOccVsX+AzwBm4Qk4ULO6E6w/ADIpnGvQYYFGWY97CFe+K0cXoPViK+138Gdzv4qw//wJagCsQ/AF4uRdffx5wbZbPcR1wfpZjZEvX4r7/2TifeM+uHIL7/Nl/o8eYSBP1zkJcMfuvwPMRZwklKe/tE4G7CvychdDl5/77Hw72vCn9gAMKmSjGJqdSmSdaplVdu+jEMYOiDiO5a6mpPLDUljyHsRfgeVKUIfPhwLGKVTlwJe6Xzq3AscSvKABu1sJU4BagGfg9sEOkiYpbCjgVd1LzFPB5oisKgCuMHwH8Bfda/RnZ3x0TibNxwM9xFxW3A8cQbVEAXKavAS8B/wHOIv93ZqXv2hlXELsed3d0OfAwcDlutloSigLgZvp8A7cs7kVcUT3q97IUofdfVM3vvL03blqnOCkM55WUlr64pKbqsKjDiJ8FNWMHNk+vuhxr/oNbP+nNYA4JFKtYjcR92M7DfYANizZOVrbFVaFfBz4bcZZiY4CTcCc0twF7RhunS0OBb+Jeuz/q/G+RpCoDrsb117ig87/j6BBcYa4B+BbFvFW2FMpOuM/yW3AF31eB/8N9ru9OPG9SZGt34GbcjJvTUYFAAnr/xWQy9uAog8SWYYeM5eGWaVXXNp9dMTjqONJ7LdMrDyq1Jc8Zt7Y4xIfBwbamKD5UQivFTdWdh/teJ/l9ksY1AJIwPoTr6fA3sl/3HoVtgB/iXssXUBwnkdJ3bIMrbM3D3ZUfEG2cXhsNXIFbO3wRbrq3SDa+jysEvIab/Xc6YftnxNEuuALIk7jeCCI5+6AwYOxBUQaJOYPhPLNm4HOt06s1nTzmFp04ZlDrtKr/hdxnCWxm29b2av3y3dR+uA66F+NOSpNuBfDvqEMUgYG4qfmP4YoDSTMMNwX7UVwTKpG4Oxw3xfiHJPfCeijus+RN3B1e0+1Xi3xgf4q/ELA1U4Cnge/htzuCyPs2mn5iDowuRmJMsthZzdOrrtHsgXhqnVp9aElp6YvW8FXyML3KpDJx7zJaKANwd3gep7gq1fejvYVzdRBu2cA3Sf4d9/2BZ9EJl8TXIOAa3E4rVdFGCWYUbk3438m+a7lIX9Qf+DFu94KQu/tIH5MCWHTGjiMp3o7EoaUMfMWsHvhy8/TxH406jDgbegnYlH0Yk78GchnYO1/HTpBxuILAt0j+hd/m7o46QMJdiJtxEXKmTtQ2nHA9hJoTSrzshivCfYXivLv+UVxRTkR6Z3/c+dnOUQeRZEoBpNvWxrEZVLwZqgypv7dMq7p2yUk7FcMU6sRqmTr+4NJMyfOdvQTy2oTFGLNPPo+fAAfi1rPtFXWQPGgH7os6REL1B/4IXEXxFYs2OAz32t896iAiwNG4u4M7Rh1ERGKlCrcMTg2zJWvuIsqkimkqcCEZDOdlSte91FJTfVTUYfqa5rMrBjdPq/wVqdR/MAU7OdrTXtRnO8CejZuuWqzT1B4B3ok6RAJV4F4X50ScoxCqcSdcJ0UdRPq084F7iXa7TxGJr+G4Gx3FeBNH8sitmbSx3D4qSSqx9sGW6VW1603758fVLnw76kDFrrVmwiF2TeYGDJMK/NSDW16prISmhgI/b9S+BPyK/E5XXY7bLnDeRo+VwHu4df/LO7+uHx801xqCaxQ3FPdBWNn5qALGZ/n8d/lH77NGA7PI313LNtx2U290PubgXg/LgdXAOtzPfjBurfVY3DKGHYHJuNdEaNsAM4BP4raMEimkS4EfFOB5lvHB+24FsAZXOF2Ne19uh3svDMZtM1iN65JerIVjkQ0ywFLc++Ldzj9b0fnna4C1uBmIK3HnTBu2vx2KO2cZhyuo98tzzm1wyyMPABbl+bmkSJQApAy7WRt1lKJQ0y9TckDr9Mrzy+uaZkYdphi11kweYu3qK6zNfIGI1lSajNkRt+9yX3Eu+SkKvA3MxN2BfQSYjftgDWUYsA+uGd7xuB0Uupvtof4C2dkwUyB0UeA13OviIeBfwCrP4xjcFolHAkcBHyHciVga+DPQAdwW6JgiPfkW+SkKtAP/BR4AHsYV45Z5Hmsobn3zfridEg4DRuQeUaRgMrgbEy/jCmONnY8mYAmuKJDrVZPBfYZOxvWu2nCuErrZ5ljcuc2huKK6FMYK3I2MOFvS1R+WAFibv2ZtfY0xjLOY+1qmV9W2dbR9Yewdi3w/XGUzrTUTDrF21Q1Q8FkCmzDG7Ig7geoLzsB1hw5VFFgL3AP8BXfxl88dAN4B/tH5uBQoA47DFQlOwN1h3uAV4v9LPE7KcN/XUA2O1gK3A9fhCkUhWOCFzsfPcXcyzwU+h7u7mas07nXcAdQFOJ5Idz4HXB74mP8Bfov7Xbwi0DGXA090Pn6FK8buhvu9expohqrESgb3GfEwbrvPl3GFsdV5fl4LNHc+/rHRn+8JnIg79wq1Ve7euP4/nw90POnZv0noksNUZ+O8fEy37Otq+qX7vdxSU3lK1EGSbtGJYwY1T6+63NrMv4i4KACQsZm+0uzpWNxd0RDN5FYDv8BN8a8B/kbhtwVcgvv/OQ03le+bfDDzQ7MFem8wrjA2OcCx1uO2WhsHfIpwRYGuNAM/BSYCZxJm1k8JbjmBeszgVNz3AAAgAElEQVRIPk0HfkeYAm078Cfc3ueHArcSrijQlQzuguunuPXOuwCXAAvy+JwivXEZrmC8D25HnT8Bz5D/okB3XujMtRvuRsZDgY57Hm7WnEi3Upl+60PcOZGujcKaGS3Tq/+y8JTtNZXOQ/P08R8tKS2dXYgdB3otZSZEHaEAqoC/kvve7R3AL3F3aC8EWnI8Xihv4yroE4GTgZuijZMYBvg/wmzbWY+7SPgabmpmoWSAWzqf+wLcOtBc9MNdXOmzVPJhMnAjYQq0s3Dv3XOAZwMcz8drwMXABOBU3KwFkSg8yVamU8eABe7HFZ1PAObneDyDm/05OMfjSJFLWWN1MpN39qx+6X6vtNZUT486SVJsmCVgSD2IoSrqPBszlrFRZ8izAUAtuc8keh13R+qrQGuuofIkg2s6ODvqIAnxDeD0HI+xEjc7YDpuHWdU1gFX4y6UnszxWMOBO9h0eYpIrgbheljkejK/BDc1+QjcVOk4aMd9zhwKHIzrJyIiW7oXN4PgxhyPMwH4Xs5ppKilUjZ4owvpWrm1trZ1WtWti2smlkUdJs5aaqqPKulf+kqsZglsavuoA+TZNcC+OR7j97gLrsdyjyMxcRRuOnAunsNN2/xz7nGCmYvb7/lnOR5nT9xsCpFQfkPuS3Yew73nbs09Tt48hmtUeBwq0op0ZSWuR84Pya3x4VdwPYJEupTKGG0tU0jWcFrKtr/eUlN9XtRZ4mbZWRO3bZlWdS3WPkD4zqwhjVh04phivTM4FbcWzVcGNz37C7hte6Q4DMctt8hlOvM/cB3K49jksQ1XiPw8bvmLrzNw07RFcnUWub+WrsFdcC/MNUyB3I8rKH8ffX6IdOUycmsiOAS3u4lIl1LGahuZCAzD2mtbplfVt5xRXRF1mDhomV59dPu69pcwnEdE2xBmo2RQenTUGfJgG1w/AF/rgGm46dlSXH6O21rJVx2uK3mu6/nz7VrcUol1ORwj1++VyDBcs9Zc/ADXv6Mt9zgF1Qb8BDcD56mIs4jE0XXAFTmM/yLoprB0LYVhZNQh+rCptNnX+vLsgfdnCWDvB8ZHnae3Uu39hkWdIQ8uxX+ZRAb4BHBnuDgSE0fiegL4uofcL7YLqQ53tzbjOX447k6tiK9LgfIcxn8b+HGgLFF5E9d7IE7LjkTi4nv476Y0CPhMwCxSRFQYiN5QrL22uabq3mVTJxZ7U7tNtEyrOiZJswQ21mEZGnWGwPYBvpzD+K+gvdyL0SDcXXTf9+czuKJALtPzo1CPa7To6zTcXtQi2dqL3KYKX0bu/TLioo38bmEqklQZ4Hxguef4c0jYebcURgotJYgFY/lYe6r95Zaa6vNskb9Z358lYJhJgmYJbCyVssU2Y+BX+K8fvwbXJEuKzzdxnYx9LMBdHK8KF6egria31/U1uK0MRbLxa/x/F98LXBQwi4jE12Lc7CAfE3E7gohsIoXVnpYxsh3WXttSU3VPsc4eaJ1eeVz7urbZSZwlsLFMcc0YOAo4yHPs8/h/MEm8DQO+7jk2A5yNO3FJsgtwOyn4qAY+HTCLFL+jcNPnfbyJW87luwRGRJLneuAFz7HnhgwixSGFoX/UIWRTnbMHZhfT7IG3ayZs1zKt6lqLuRdM4oseKezAqDME9APPcauBM0nO2nHJzoXAdp5jf0Zx7Eu+HtdvwLdD+vdBn7HSa9/xHJfBneT7TisWkWSy+C8dOoF4bgkuEUqhk5a42hZrr22tqZrVWrPDxKjD5KK1purY9ZlMInsJbI01pjTqDIEcjv90sh8Cr4aLIjEyEtc3wsfzFNd05lfxv2AbB3wuYBYpXh8CPuI59jq0Fl+kr7odmOcxbgQwJXAWSbgU2GK5wClOlkOt7XihdXrVt+1FyarsvT9LwHKfMYyLOk9IBlssa4d9ZwvMwa2FleJ0IW77Sh9fwd1pLya/AV7yHPtdQJ+z0hPf4tNi3GtMRPqmdlyTYB/HhAwiyZcCoxkD8TfIwuWtsyv/teS0CTtGHaY3Wmuqjm2zHS8X0yyBjdniONHfCfio59hvU3wXf+L0x38ro3rgPwGzxEUHrljiYwxwSsAsUnzGAyd7jv0xWkIg0tfdjltWkK2jQweRZCtB60sSxByS6cg821JT+XjUSbplzSBrOagI6wEbsb5do+PEd2/6x4EZIYNIrJwClHmMW09xN6L8O3Af8DGPsecBt4WNI0XkLPzOxd4C/hA4i4gkTyPwBHBgluM+hLvRpRs9ArjCQBv+W+NI4Q3GmiOjDiGptqgT5CgNfNJz7C9CBpHY8V0T/xdgbsggMXQJfoWBI4BJuM7xIpv7hOe4K4G1IYOISGLNIPvCQH9gV1xvIBFSqKO4SNYMNunV1aOA7T3GNQF3Bs4i8TEJdxGbLQtcHThLHD2JX5M3g5oQStf2wZ2YZ2slbqsyERHw3wlon6ApJNFUGBDxYI1N+owB32UEv8I1upHidA5+a4AeAl4OGyW2fAsgn0Sz82RLvrMFaoFVIYOISKI9hysYZmvv0EEkuVJoGppI1gypJM8YKAGO9RjXgZsuLsXLtwHar4KmiLc7gQUe4yqA/QNnkeQ7yXPcH4OmEJGkawce8xi3V+ggklwpkj8lWqTgLKyIOkMODgCGeoz7D9ASOIvERzUw2WPcO8ADgbPEWQfubq2PE0IGkcSrBnbwGDcPvyUtIlLcnvYYMzF4CkmsFMa8G3UIkaRJeGHAZ7YAQF3QFBI3J3qOm0Hf62jsu8OACgOysaM8x92L39ZkIlLcXvMYUwEMCh1EkikFLIk6hEjSpCzvRJ0hBz6FAQvcETqIxMrxnuN8754n2VO47aGytTtQGTaKJJjvDkMPBk0hIsVitscYg5u9JEKKjG2NOoRI0mSMWR51Bk/l+DWaeRW3Z7YUp0HAYR7j3gP+GThLEljgLs+xPtsdSvFJAR/1GLcemBU2iogUideAjMe4CaGDSDKlIKUZAyLZajdJXWu/H+6ENFv/Dh1EYmVv3H7G2XoUSPoOHb58t4b6UNAUklQ7AcM9xj2JK8iJiGxuDbDYY9y40EEkmVImZVUYKE4rgT9h7XTbkd49Y0rKjUlPysARFn6KZW7UAROsrWKPuUujDuHJd1ua/wRNIXGzn+c434vjYvAv/O7M7Bs6iCTSnp7jngyaQkSKzSKPMSODp5BEKiFjWzE+21ZLTFkwv82Y9CWja+dsXvRZAswBZtnD+Z+WEdXnGmN/CowofMxEW2wu8bogiAPfbWkeCZpC4mYfz3F9uTCwDHgF2C3LcbsAg9Ee9H3d7p7jngmaQkSKjU9hQNcBAkAqY2xT1CEkmNUGc1pFXcOXuygKbMLMon1UfcP1NpP5EH7NSvoyn1+6ceFTGHgHmB86iMTKFI8x7egi5QmPMWm0b7T4zxjw2Y5MRPoOFQbEW8qWpDSlvDhkwJ5dXteQVYfwUTPmz0tl7FFgF+YrWLGxsCDqDJ62w6/BzKuhg0isDAF29hg3B1gXOEvS+BZVtZxA9vAYsxr3vpPCGINrNJq0x5h8fDMkMXx6DKgwIACkRnU0LqDv7UFdhMzVFXVNM7r6mwU1YwcuOn2HcQ3nVA3o6u/LZjQtJmNPR/si90rKmjejzuBpJ9y2NNny2RdXkmMSfg0pXwkdJIF8vwc7BU0hSbMNfs2+5uHX10JE+g6fXbO2C55CEillaukAGqIOIjl5u7TdXrb5H7bW7DCxpabqjlJbsrykvWP+oPdY0VJTXddcU7nFfqUVM+Y/Cra+MHGTzRreiDqDp/Ge41QYKG6VnuO0BMm/MKAO0H3bWM9xmi0gIj1512NMafAUkkgpAGvUoT7JrLU3D7uzcZMK4eJp4ydb2/Eklo/zwRu+FGunGcuTS2qqt7hjlcH8phB5E89kkjpjwHd64bygKSRufC9SXg+aIpkW4rd1nAoDfZvv72Kdq4lIT1Z4jPHZrliKUAogZRN7B1QAbPpvm/+RMeZGYFjXA8zIDPxh8z8dtbTxEeDtwOmKzno6knpB5HsB2Bw0hcSN70WqzzrGYqQ9oyVbvoUBNYsWkZ74FAY0Y0CADTMGMM9FHUT8laTXb9Icrrlmwu4G031zK2sP3nzWgJlFO8mdJl8Q1rJgXO3CpBZPfAsDrUFTSNz4LjFRwcjx+T4MxzV9lL5pe89x3e42JCICrPQYo8KAABsKAx2pZ6MOIt7siCULWzb+A5Pp2LE3AzsybPl1lrcC5SpKxpDkIppvYaCl5y+RBNNMktz4fh98v++SfCoMiEi+tHmMUWFAgM7CQMU7c1/DbYMjiWM7zCzaN/kTY3vVkTRluuxc2te3H+tJkgsDPl1n1+DXyEaSYxuPMeuAd0IHSSjfwpnP912Kw7ae41QYEJGetPf8JSJdS8H7U8hfjDqMhNGxrv1xel5j9PaKVeknC5GnmFhjkjy7ZqDHGJ/GapIsPq+LlWh70w18C2eDgqaQJPF5z4F6AIlIz3xmDIgAG+9dbRN9wSMb2f7ut1YbzA+7/SJjvjtp5hzNDsiOpT31RNQhcuBzMqrXSPHzuUBdGzxFcvm+R3wvDiX5BniO0/tORHqiGQPi7f3CgDWZR6MMImGV1zX8ysD3gPWb/dVasN+oqG24LopcCTdn1B1zk9yIz+dkVIWB4qeCUW58L9Y0Y6Dv8i0MbP55LiKyORUGxFvJhn9JpzOzMu3pKLNIYOV1jT9ddPoOfylpbz/RYsYay/x0qv3ukbULF0WdLZEsSS+e+VyI6AKw+GnGQG40Y0Cy5fuz1/tORHqiZX7i7f3CQNmtC95qmV71OrBTN18vCbP9rXMXAL+NOkcxsCn7SNQZctTfY4zuUBU/vS5y41sY8L1rLMnn854D3QkstNVAEmdXqpm4iHgp2ey/Z6HCgMjW/DPqADnKANlOC0r1/CWScG1kf6HSLx9BEsr3e6HiSt/l+7Pvh2ZxFdJy4PyoQ4iIFMomJ/3WFQZEZEuvj6ptaog6RI587iL43tmS5PB5Xehu9wd83yO6q9d3+f7s9b4TEZG82fRuYEf6n7i7iiKyEYt9MOoMAfisT1VhoPit8Rij18UHfC/WfL7v+bL57EHJL9+fvQoDIiKSN5sUBkbdMbcVYx6PKoxIXKUND0SdIQCfwkBp8BQSNyoM5KYYZgxoaUhhqTAgIiKxs+X6YcudEeQQiTH73lo6kt5fAPwuRAYHTyFx4/O6GBI8RXL5fi/iNGNAhYHC8i0KaYtLERHJmy0KA8akVBgQ2YjF3DeudmGcTuJ9+fw/bIfuDhe7VR5jBgHbhA6SUBWe43y+7/mipQSF5VsYGBU0hYiIyEa2KAyU186dA8yOIItIXN0RdYBAmj3HlQdNIXGzyHOcLlIc3++D7/e9Jz5b2mnGQGEt9hw3JmgKERGRjXS5FZnBFsuFkEiu1vXrX3Jf1CEC8b0QUWGguC3wHDc6aIrk8vk+vAe8EzpIJ5/t7NLAwNBBZKvme45TYUBERPKm68JAOn0TYAucRSSO7hrx1znvRh0iEN/CgO9UaUkG38KAZgw4Pu8P3+95b6z3HDc0aArpTpPnOBUGREQkb7osDJTdNu8N4MkCZxGJHWvNTVFnCMi3MDAxaAqJG9+LVL0uYCQwzGNcPgsDPjMGwPUTkcLwnTFQHTSFiIjIRrosDABg+FMBc4jE0ZKKEcPvjzpEQL6FgR2DppC48b1I2TVoimSa7DnO945xb2SADo9xmjFQOIvw+xntETqIiIjIBlstDPTvl7kVv33PRYqCsdxsrnumLeocATV4jtspaAqJm7me43wviouJb3FkXtAUW/JZ/qTCQOG04TdrpArYNmwUERERZ6uFgaE3z3/Hwl2FDCMSI7a9xF4bdYjA3sRvmywVBorbUqDRY9zOuKZ1fZlvYeCZoCm2tMRjjJpJFtazHmMMsHvoICIislV9qufe1pcSAGnDbwsVRCRmHh5zW9OrUYcIrAN42WPcONSAsNj5XKgOAHYLHSRh9vUYY8l/YWCpx5hxwVNId3z7OO0dNIWIiHTHZwvgxOq2MFBW2/gvi326UGFE4sIY87uoM+TJ857jDgiaQuLG90L1sKApkmUIMMVj3Dzg7cBZNudTGBgbPIV05ynPcR8JmkJERLrjUxgoCZ6iQLotDACkjPlNIYKIxMiismHD/xZ1iDx5wXPcgUFTSNz4FoD7cmHgYKCfx7h8zxYAv6UEmjFQWE/jGkVm66P4ve5ERCR7PlsAlwZPUSA9FgZWvFdyC9BSgCwiMWH+t8iaDm7sOc9xBwVNIXHzDH4XKYfi1j33Rb5FEd87xdlY6DFmQvAU0p13gdc9xm2LZnCJiBSKz/VA8RYGJs2csw5LsTVhE9maFSX909dFHSKPnsavY/kB+O3XLsnwNn4XrCOB/QNnSYrjPcc9GDRF13x2mtgBGBg6iHTrn57jjg2aQkREtsanMJDYWV09FgYA2jJtvwRW5jmLSOSs5Xcj/jrH58I5KdrwOxnth/+FkCTDPZ7jTguaIhl2xm9P+fnAi4GzdMWnMJDGf5cF8XOn57gz6eX5m4iI5GSFx5htgqcokF59sIy9Y9Eya1GvASl2q1Mprok6RAH43rE8OWgKiZtcCgN97SLldM9xdwdNsXVzPMdpK7zC+hd+jSirgMODJhERka4s9xgzIniKAun1yVx7pu0qNGtAipr9bXltY3PUKQrgAc9xx5LgKqj06AVggce40cAhgbPE3ame4+4NmmLrWvFbMuSz/aL4a8P/NfHpkEFERKRLPoWB4cFTFEivCwNj71i0zMJv8xlGJEKrbEfJlVGHKJB5wBse44YAnwycReLD4j9r4Eshg8TcR4BdPMatAh4OnKU7PluTHh46hPTIdznBKUBZyCAiIrKFNuC9LMeU4hrFJk5W0z87+pVGPWtgNdg5wEu4nRJsnp5nhbG8CrwCvJOn5wBYgrEv4zoTr8rj80gPLPx61B1zW6POUUC3eI77Mn23C31f8GfPcVOBypBBYuwCz3G3A2tDBumBzxaUuwLloYNIt+7H7zxjEPDNwFlERGRLSz3GJPKcKKvCwPa3vLHUYi/PV5itWA1cbTMcWD65cZuKuqZJFXWNe1TUNY6inxltrTkP4703+8ZarbE/yJjM5Iq6xqHl9Y27VtQ1Tq6oaxxOumMixnwLrM8WUJt73Vj75ZJMybiKusbyitqm3SvqGneuqGscksrYKRZ+it8UUPG3bEBp5oqoQxTYn/ErrO0MHBU4i8THE/g1xysBvhI4SxztDHzMc2yhd/fx2WXCAEeEDiLdWg3c4Dn2i0BFwCwiIrIln+u/HYKnKICsG0a1mY6rgaY8ZNmS4c5UScekirrGC0bNaHzCXLLpPtsVtzS0jKpvuL5818Z9jLWfwf+u+9XGDN5hVG3Tj0fXzn9l87+suG3B3IrahivXm44dsfwIv/2+1xvLV8uXNu5WXt/0mxEz5mzxIiub0fTsqLrG77X3K90B7F98/kckewZzydCb5+dzZkgczQP+4zn2R2jWQDHz3a7zcxT/Rcr38HvtvwD8N3CWnvjMGACYFjSF9Mbv8DuvGAx8K3AWERHZlE//pYnBUxRA1oWBcbUL11j4Tj7CbMLaK8t3bZxWduuCt3r6UnMJmfL6phuMtR/GNV3qrYyxnFNR13hBee3sHtePjKtduKaivvEiLNOA9Vk8z7sGc2R5feMvzSzae/ri7W95Y2lFXdPZxp2ESn69XjZ8+O+jDhGRP3mO2x84I2QQiZW/4O5iZmsb4NLAWeJkP+Asz7G+xZZczMUtucvWicB2gbNI9+YC93mO/TLaTUJEJJ/me4yZHDxFAXhtMVVR13gb8HjgLB+w3Fxe3/TtzWcI9KS8vuk5MpmpwLpeDvlueX1j1hdHFfWNd1prvtzLL+8w1p5RXteQ9d3Z8rrGn1prf53tOOm9lLEXmuueaYs6R0Rq8V+28lNgYMAsxcrnLmBp8BTZWYF/D4pPA3sEzBIXBvgFfp+ZK4G/ho3TKxa3fj1bA4DpgbNIz3w/60uBPwDpgFlEROQDPoWBA4KnKACvwoABm8mkvgp0BM4D0GxSg883no0FK2bMfxRLL9aL20cq6hp/5vMcAKPqG643pjd7Upvfl9c3+d4JYFlqyIWdDRclNMOdZbVNhdo+LI5WAr/xHDse+EnALMWqt0XKjcVhS8if4jrxZisN/BLPz5YYOwv/LRmvwRVbojDTc9wX0XKhQnsQv74Q4Gaz+DbFFBGR7m2xzLwXdiKB2xZ6n7yNnjHvKWO9K9xbZay9rDfT+ruTaut/FdhuO0gak/5uLs8B0JHJfJfuCxir6Zfb1NrJtbPXW2v+J5djSFfsex2kvhp1ihi4Gv/eHF/FvxFbX+HThT4OhYG5+C81OQy4MGCWqI0HfuU5djlupkFUHoSel691YR/g+MBZpHsW+HYO4y8FDgqURUREPvCSx5hENvPN7a5OavAPCNqI0LavS3X4TmF9X9ldr68E7ujmS+aV1857JNfnGV0/f7bFPtPNlzxQcUuDzxrPTaxcXTKDaLeJLD4m9aMxtfN8pgYVmyX4r382wB+B0eHiFB2fGQNx2fv2MrLrpbL52L0CZolKCreDx1DP8b8gv1ve9uQdwPez7ochg0ivPIx/r4H+wAwSukWWiEiMLQMWeYw7JXSQfMupMFBeO/s9g/1CqDCY1H/H1S58O8yxuptCaXzWXW7labb+PNYa32mcm5g0c8463AmDBGCxT5cvabg66hwxchX++6uXA/cQn4vZuPG5KBwRPIWfJuD/PMeW4voU+F5Qx8X/4GZA+FiGW0YQtT94jvsQ8KmQQaRXvoP/Ms0K4C7iMetIRKSYvOAx5gRc0TYxcl4HWl7XNBPLzSHCYDMNQY4DGMzWj2VoLMTzmFTA57EE+970ceustef0ZneIPuQt4Mocxu+DOxkdECZOUVnsMWbH4Cn8XYK7wPWxM+4OZqI+FDdyDq4w4OsH+Df3DKke8C24Xw2MCZhFevYS/sUccM0/Z6JirYhISP/2GLMdCdvFK0iDqLZM21fwm2KxGbMk92N0HindsdVtC03GZrOlYffPY7o5VntWWyf28ERe207JZozh4tH182dHnSOGfoJbV+7rMKAOGBQmTtHwKQyMIj7LM1qBr+cw/gjgBpLXyO5o3BIb39z/Bq4NFycna3BbUPoYhps1oo73hfVNyOnGwsHAQySw8ZWISEz5ztxOVD+zIIWBsXcsWmbJfAq/rbk2YoPtcpAxJVs9lk2ZHHNudCzM1p+nJNzzkPP3VoDHymjM5c54MVuL2w87F8fjLoi2zz1O0ViAX/O3ODWsuQm/be82OBN3cVkSJk7eHYOb6dDPc/wa4HN47qyTJ7/Ff3r6cbidJqRw3sXNWMnlc38/3Imseg6IiOTuGfx2GNqLBG0BHGxLqVF18/+BtT8PdTyRwJZbYz9havOyxWaxuB+ozfEYU4D/4k5KxRVc3vQYd1roIDn6PJDLbjGfxk1pHxgmTt6cBdwNDM7hGD8C3ggTJ5jXcU0UfX0R+H6gLNI7/yL3HhV74E5mj8k9johIn9YBPOA59ioSMqM26F7T5SNGfh94MuQxRUKwli+Oqm1Sn4aefQl3lzsX2wOP4rbPSur68pBe9BjzMWCH0EFy0IS7OMzFSbjpzeNyjxNcGtcT4Cb8ZwoA/BN3AhBHl+C3S8YGl+G2bdSygsL5Hn4NrzY2ArfTwSXk9toWEenrfAvslcCvQwbJl6CFAXPdM22pdOps4tFwSaSTvX5UfWPO22D2EUuAU/Hfpm6DfrgLrWdJzt7alcC0PBz3MY8xJcBPQwfJ0U24ZnS5OAh3oVOTe5xgxuMu6C8lt14IjbiZHnFtbNoE/D7HY3wZtwvJqNzjSC+sBU7ENYjNRQrXSPM54NBcQ4mI9FEPgHfPt3OBrwXMkquhwMXAbhv/YdDCAEDZbfPesNZ8Aq2Jl3h4br3pSFTjjxh4AvhGoGPtips9cDewb6BjhrYvbmu9OUA+lkP5bltag5uCHyffwt31z8Uw4Hbgr7iL8qj0w82CeIHcL5ZW4/YrXpprqDy7mNxnBB0LvAqcTx7OIWQLC3CzbVYFONZkYBburteEAMcTEelL2sltWd4vgG8HyuJrGO5coAG4CPj4xn+Zlw/1UfUNd+PuvohEqbW9JH3yuNqFa6IOkkC/wl24hXICbpnR3bgLi6inI2+PK368ADwFnI67S18JVAV+rjfxX3N+LfHaS74d972aF+BYZ+LWvv+MwnZPN7hGQLOB3+Cq5rmwwGeA53M8TiEsxxWbcm2MOBQ3++A53OuzNMfj5UslsEvUIQJ4Btf/IsQNFwOcjfuddDOwZ4Bjioj0Fb/ANRn2YYDLgdso/K4x++K2wl2IKwhsOPc5YeMvylu1v3xy448M9p58HV+kB20pw6nb3zo317tjfdmncdOGQzG4X0Azcb+YrsY1KSzUXcdyXKfvvwPzgStxzbk2d3genvtGz3ElnWP/Qnx2e1gGfBQ3NT1XA3Bbs83HbWt4YIBjbk0FrlL/Oq7J5qQAx7S4WQe3BjhWoTyE26UghD1wr89G3PvpUKIr+m0D7A98FreLwquduU6NKE9of8PtdhGqgW4at7/2c8AjwP8jHtukpoC9gQtxvRHU1FpE4qQZ+F2OxzgV9xn1DXJrdtyT4bgbF0/iboJ9mi2bIO6HOz8G8rh9lLmEzNs16U+st5knDOycr+cR6Yq15ktldQ3/ijpHwq3H3Vm9C7eve0ijcGutvobb/uXRjR6vAq05Hr8Ed+G3O65KeiRuy5jerCE/HP8L+a35I7k1/zoLt7SgFldpfpjcdgnIVSNuS8VQ26ENxq2/Oxd4DVc8egjXmd13CrXBXbgeCRwFfISwzdc2FAVyXbcfhW8BHyLc7iGjcSc438AVjv6D6y/yDPASsJjcey/0A0biTmA2zOypBHbCTZGvJLceEUlwA+59fxPhZmkY4ODOx9W4nh5bdRMAAAyGSURBVCizOv/5OH7bc/XWSNzPbvfOx56d/z0kj88pIpKrn+GK0NvmcIxyXEH9IuBeXCH0ReAV/Pt8DQf2wZ33HgscQs/F+hSu4fWNkOd9pYfXzlux+PSq40w7j6NmRVI4PxtV33B91CGKxDrc2ul7yc+ddIDtcL+UPrbRn63CrX9qwF1ULMf9onyv8+/W4y4mS3Fb4G2L+yU7BndneALubrSPwzzHdacZVxw4L4djlOIKBGfhLrJewN3pexp4mdw+THw0ELY4sMHOnY+vA224QtGG5RjzcBcqK3Dr+tfhXj/b4F4P2wM7dj52JX9T9ZJcFAD3vTsBd/EXeveLEbg1ixuvW+zANWxaAKzEvZ8t8E7n3w/r/Oc2uPOSgbj3b0nnnw0n9yUfxeJ23PewjvDbX6WBD3c+wC1dmIN7383DveffwjVFfJcP3oMbfl7wwc9yw58ZXAFgROdjJB8UdvJ5p0xEJF9acLMdrw1wrCG4xsUbtqluw81sfA14G/d5+S7u9/5a3PluGvfZuC3uvGcU7veq78zS4ylEYQBg9K2NjUtqxp+QsWYWGFWBJb+MqS/fteG71EUdpKisxv3S+D/c1NNCGIzrlLpbT1+YB1Wdj8bAx70Yd1Ef4mS4BJjS+digHbfveajGkb3RgLuIuBNXpQ6tH+6uf1dLPqKyBjc1L+k7nbTiinGP4i7W8imNK9qNyfPz9BUzgWNwxYGKPD5Pig8KbSIi8oHrcbNqjwp83H4U/vz3aNzNp/UFWdtbVjv/GWs4mcLezZI+xsCs1YPtJ8wl2hEjD1bjmsV9i3BrXOMsH7MGFuO2DMuXEj64A1tIC3DFgdsieO5CW4j7f016UWCDN3AnNYuiDiJZewS3Fn9WxDlERPqiDY2HF0cdJIBt6ZwpVrCthkbVNv3TGM4n927IIl0wz6T7l5xcfWPj2qiTFLkrcbMHorgALaR8FAbAreG9L0/HBtdpPwqrcbNJvkPxblX7OG5N/jNRBwnseVy/geeiDiJZW4zroXEJfaNgKyISJwtws7eWRx0kgBOgwHsQl9c23gj2y6g4IAFZeC1j0seN+Oucd6PO0kc8gGsUNSPqIHl0RJ6Oa3Hbu72ap+O/kqfj9oYFrsB9796MMEdo63HNgQ7D9YooRm/heojMjDiHZK8Dt0zpaPy3RRURET8v4XYZSPrW6MdDgQsDABV1Tb81lq8V+nmlaL1ZYtqPHF07Z0nUQfqYRcA04CTcVnPFpoqwDfU2thR3Ej8v8HHXAnMDH9PHv3Hdxa8i+Xcxn8T1cfgRriFQMXsXd2LweVyTI0mWf+IKtt/FfycPERHJ3t9xN0Vaog6Sg0nATgUvDACU1zf+0rqO0yK5eDNt2o8YWbtQ62Ojczdue6nLKa6LiVXA2DwefyFuz/WQW2q+TnwuxNfgOvYehLu4Tpq3cfuoH4Tb8aGvsLguy7vjTnT6ojeIbklOrtbjfhfvDNyKZmeKiBTKf3HndUlclrfhnKchksIAwKi6xv8F8030wSU+LG+kSjoOV1EgFt7D3aWqwk1pfTvKMDl6C3d3uArXrT2fluIav11MmMascbyYeRL3QXkybnvFuFuJ+/lPAH5BfAothdaEm9XyMZJZ2MnG67hiyJm4XRN2AmojTZS7hbieH5OBG3BbCha7Ftz/63QKuzOLiMgGTbhznu+SjKUFTcAFuHPeX1CoXQm2pqKu4Sow54BtjzKHJIyxL6f6dRxRduuCt6KOIpt4G9cEqwp3t/i1SNP03ru4u2snAONx68mXFui523Dfs72Bv5FboTTK/gI9uQu3neFpuGZ3cbMc11hzAu7nvyLaOLExE3eScyLwRMRZQlgLPIZrAnoarhCwM275xC0UR3fpjb2K65pdjev/UUxNYzPA07jfnx/C/Sw/A9RTXLPXRCRZ2nAzt3bH7dYUtxsMq4CbcMX/CbjPw/d/Z5ZEFOp9FXUNf26uqV5urL016iwSfxb+VUr65OG3NunEPb5W4taXX4W74D0DdxI+PspQm5mDmyp9F/Aw0d9RewX4OLAH8BXcXa/tsjxGHGcMbCwD3N75mII7iT8DGBphnlm4u4z1uItG6do9nY9dgLNwd9erI03UO2/gpnc+iStsvEDx94roymLcjiEX4Tpon4rrD7NNlKGy9B7uZ/kYboeQxymOTuAiUpzmAqfjLr6/DpwLDI4oSwZ3rvtnXOPw97b2hZEXBgBG1TbctXh61cdSpD4cdRaJtRlrhnDWqBvn6QQ+OZ7rfHwbOADX+fxg3NrtYQXKkMFNF34St/f3Q0BjgZ47Wy8CnwW+jJvGfSTwUWDHXoyN84yBzT3T+bgQVxA5Dvf/OSbPz7sWt0TkH7hZIg15fr5i8yrwA+CHuPfzR3Dv5YOIrsADbobHK7h+ELM7H8+S7GVN+bAOVwy9CxiAe98dj/udvBNgoou2iXZcc9ancAWAR3Gdv+N2563Y/QS4LssxTfkI0gsX4GaPZGNOPoLEwBJg3yzHRFEwnUH22/8WajZnSPOA/wd8C3eX/hTcDNUReX7et3E3wB4A7qeXM+JiURgAGF3XOMseziNR55CYsvbK8t2avmMuKdo90oud5YO7POB2RNkVd0GxE+7u44ZHtnfKN2jD9Qh4o/PxOu4C4WnccoEkWYv70NywJeQwXKf/3YEdgHG4i+gy3PerlHjsSJCtNbgp3Ld0/veuuALBwbhiyI74V9gzuJPUN3AXif/EXWAkYd1f3G3t/bwvbilRNf+/vbt5jauKwzj+nDvTBJNUqphOQmmVgiiokIIW3zbV/6BQBFcuXLiRgis3glKoLrpSkRZciAtbSSdRIoi4SEBdqFBB2rqwL5NEEk3TdhLz0qRz57j4zTBJjY1JZuZM7v1+4JAwhMwP7tyX88x5sV09HpK0R5t71liUdfhnZOfvjGy7yAnZHPpx2e4ofyh5UwCa4ZakwUqTpAckPSM79w6odgzbGvT+c7JjOCk7jldk4c5vsmt3PdZdwdaMKlxHf6OS2snfjNvaeIc7hGltz47+Zi3Kpox+KbtnPiq7Zz4pqU92v+zVxu+XZdkaK5dlX8Sdq/w8r02EqS0TDEiSGxFrDeAOviTpaC4/+pHyoWtBHZVlF621Vny/X9bpbZd1iNtkncOdsmtWUdYxmau0aUlTkq43vOpwbsqGvY+ELaPhLlbaByte2ysLCPbKPgddsjCkU/YZKco+B/OVNiV7SPxd4aeIpMXdzmepdg53Vn7fJft2elmrt9ablT3IzIuOYbNNy3aZGVrxWiQLdvbLHlqr1+R2SR2S7pWUkV2PVw7rvy07J2/Jjmk12CnKpppNiHUAAKRXWbXnnU9XvJ6RlJNNve2SdI9sdFeH7Lo7KxtRVZQFDdVwtW4jPloqGADucK1c1ku9A6PDoQtBU90QQ4BRM15p2L6WKy1Ji9+lQVm186+eW6sCAP4tlgWnwRZXD7orAfCfnM6VszpIKAAAAAAAjUUwgFZ0anYu+2zvmUIhdCEAAAAAkHRMJUArmfVer/XkC6fX/1MAAAAAQD0QDKBV/KRM/HLP5+PbcWV1AAAAANi2CAYQ2rKXO5abvvoeu1IAAAAAQPMRDCCkX533r+TyhV9CFwIAAAAAaUUwgBAWnNOx7muFE4wSAAAAAICwCAbQVE7+qzjrXmfHAQAAAABoDQQDaBJ/yfvojVy+MBS6EgAAAABATRS6ACTeDSe9OTu/4/Ge/FVCAQAAAABoMYkdMeBKHfNy8z97r6dC15JSC5I+bCvp3fu+KBRDFwMAAAAAWFtig4Hd/RfmJB2cOrL/ee/L70h6IXRNKbEsr08i79/uHhidDF0MAAAAAODuEhsMVO3uv/K9pBcnDz94KJNxb3mvQ6FrSqi/JX0cZeMT3WfGJ0IXAwAAAAD4fxIfDFT1DowOSxr+6/C+5yKXXQpdT4JMOOn9HSWdYsoAAAAAAGw/qQkGqnIDYz+EriEhvvPOn7yurrOP9V9YDl0MAAAAAGBzUhcMYEtuSO60j6OTPYOXz4cuBgAAAACwdQQDWM+Sk//WK+ovLS2d3TM0sRC6IAAAAABA/RAMYC2LcvpG3g22t8VDuz4buxm6IAAAAABAYxAMYBUfZ47HpcVXGRkAAAAAAOlAMIBVWDsAAAAAANKFYGCLZuaywzs7Sk87pz5JByT1SXpCUkfYygAAAAAAWB/BwBY9/PWlJUk/VpokyR9R5k/teySjzrFwlQEAAAAAsD6CgQZw/YqlsYv1/J9lr5FIOuqdK3qnYhSr6J2KcRQV6/k+AAAAAIB0+Qcx0vlFdcCZYQAAAABJRU5ErkJggg==;" vertex="1" parent="1">
          <mxGeometry x="127.5" y="250" width="205" height="41.21" as="geometry" />
        </mxCell>
        <mxCell id="ixr-vEUPFZz1RlNf7RGq-6" value="&lt;ul&gt;&lt;li&gt;&lt;span style=&quot;background-color: initial;&quot;&gt;Securisation du SSH&lt;/span&gt;&lt;/li&gt;&lt;li style=&quot;&quot;&gt;Ajout de clÃ©e(s)&lt;/li&gt;&lt;li style=&quot;&quot;&gt;Configuration du user et mot de passe initial&lt;/li&gt;&lt;li style=&quot;&quot;&gt;Image pourssÃ©e dans AWS, GCP, Azure, Proxmox, LXC, Qemu...&lt;/li&gt;&lt;/ul&gt;" style="rounded=1;whiteSpace=wrap;html=1;fillColor=#f0a30a;fontColor=#000000;strokeColor=#BD7000;align=left;" vertex="1" parent="1">
          <mxGeometry x="110" y="310" width="240" height="120" as="geometry" />
        </mxCell>
        <mxCell id="ixr-vEUPFZz1RlNf7RGq-8" value="&lt;ul&gt;&lt;li&gt;&lt;font color=&quot;#000000&quot;&gt;Ajout d&#39;un compilateur&lt;/font&gt;&lt;/li&gt;&lt;li&gt;&lt;font color=&quot;#000000&quot;&gt;Ajout d&#39;un environnement d&#39;exÃ©cution&lt;/font&gt;&lt;/li&gt;&lt;li&gt;&lt;font color=&quot;#000000&quot;&gt;Ajout de l&#39;applicatif&lt;/font&gt;&lt;/li&gt;&lt;li&gt;&lt;font color=&quot;#000000&quot;&gt;Configuration des tÃ¢ches &lt;b&gt;&lt;font face=&quot;Courier New&quot;&gt;crontab&lt;/font&gt;&lt;/b&gt; et &lt;b&gt;&lt;font face=&quot;Courier New&quot;&gt;systemd&lt;/font&gt;&lt;/b&gt;&lt;/font&gt;&lt;/li&gt;&lt;/ul&gt;" style="rounded=1;whiteSpace=wrap;html=1;fillColor=#1ba1e2;strokeColor=#006EAF;fontColor=#000000;align=left;" vertex="1" parent="1">
          <mxGeometry x="370" y="330" width="250" height="100" as="geometry" />
        </mxCell>
        <mxCell id="ixr-vEUPFZz1RlNf7RGq-9" value="" style="shape=image;aspect=fixed;image=data:image/png,iVBORw0KGgoAAAANSUhEUgAAAnAAAAMACAYAAACkRlrWAAAABGdBTUEAALGPC/xhBQAAACBjSFJNAAB6JgAAgIQAAPoAAACA6AAAdTAAAOpgAAA6mAAAF3CculE8AAAABmJLR0QA/wD/AP+gvaeTAAAAB3RJTUUH6AcIDxQqvx6eDgAAgABJREFUeNrs3Xl8VNXdP/DPuTPZIAkEkszMnSFEDCrGBUVBEURZZN/3EJKAVeujre1jW1ttq20f/bW2drHSVatAwr7IIqCCO+64g6iIAZI7M0nYskCWmXt+f4BVEcgkmUzumfm8Xy+f51WdJOd+z5k7n7n3nnMEiIgU0q1bt9ROnTrZm5qautpstjgpZfKpr9FMs4u0Qfvmv5XHpLQ1fON1mhYMBALVcXFxDZqmHUtJSanbuXNnI6tMRFYnWAIiiiSPx9MtGAw6AGQIYbqE1NKkMLvCFF2FkGlSiK6QsquE6CqArgA6Aeh88v8nROjMeBQSAQEclRK1EDgCiSNS4IiAOAIhjwgpjkghjwgTFUGgwmazeZOSkir37NnTwF4mIgY4IlKCruudAGQBgR6A5oGJLAjRQ0K6BOAApBMQGQDio7sS8gggfAAqIeAVUhomtH0ADthMs8wWDO7fV1XlAyA5aoiIAY6I2pvmcrl6aJqZY5rauULIHEiZA2i9AOkB0J0lClkjgHIB7JcQeyTMzzUp9khN21NfX//5oUOHqlkiImKAI6KQZWRkJNtstj42IFcCfQD0gUBvAOcgUrcwqQIQeyDlJwA+1oCdTVJ+7Pf7S8Erd0TEAEcUu/oBcT535oUIapdJDbmQuAjABQB68txgWXUAPpbALiGwS0rxfjAYfLeiosLP0hAxwBFRlMnNzY0/ePBgbxvQTwrRDzD7AeJyAEmsTlQ4DMhdgLZDSLkjCOzw+XwfAzBZGiIGOCJSg+ZwOC602TAAUrsKQg6AxIUAbCxNrIU6vAGBN0wTb9jt9jfKysoOsSxEDHBEZAFZWVlpgUDDICG1q6SQV0HiSgAprAydQgL4TABvSInXhc3cXl5e8SF4lY6IAY6I2p/D4ci02TAAprgGAsMBXAacumgtUUhqAPEGhNwKaNvT0tLe5ELGRAxwRBQGbre7O4LBYaaQQwXEtTgxM5SonQIdtkPIF6XUtnq93nfAK3REDHBEFBK7y+W6VAg5HFIMB+R1AOwsC3WAgxB4Tkqx1TTNZ/1+/xcsCREDHBGd5PFk5ASD9nECciSAa3Fi2ygiq31kfAYhnxUmNgm7/bmysrLjrAkRAxxRLLG5XK6+QsjxkBgHoB9LQoo5DojtEuZGIWxrDMM4wJIQMcARRZ1eaWld6pPix8IU4yEwEkAaq0JRQgJ4FwJPSSnWe73et1kSIgY4ImV5PJ5uMhAYJzVMh8QIcCsqig37AfEkhLnBMPzPAwiyJEQMcESWput6ujDNMVLDdAAjIRHHqlAMqxLAZinkSpfh37IDaGJJiBjgiCzB4/F0CwaD0zTIPAkMBtdlIzqdCkisgGYuNYyK13Di1isRMcARRU52dnZiY+PxEYCYC4mJAOJZFaKQHQDEWgix0DCMd1gOIgY4ovak6bo+XEgzXwKTASSzJERtJPEBNJTYbIHiAweqDBaEiAGOKCx0Xe8BmHmQuAXAOawIUbswAfGckHKxsNtXcp05IgY4ohbLzs5ObKqvHy+FuBmQw/h+IYokeUQAK6Sw/ZO3WIkY4Iiapev65ZDB7wJiFoAUVoSow70jIf4VCARKKisra1kOIgY4IgBATk5OwvHa2gknr7YNZ0WILKlGQC6FZv97eXn5eywHMcARxSiPJ6O3GbDdCIEbAaSzIkTK2CEh/iWEKDYM4xjLQQxwRNFPczscY6Sm3cFn24iUVyUg/i1stgVlZWXlLAcxwBFFmYyMjGS73Z4nIH8AoA8rQhRVghDYDGi/NQxjO8tBDHBEinM4HOfYhLgFAjcB6MaKEEW9HULiYafPt5RbdxEDHJFiXC7XFYC8S5xYcNfGihDFnAMC4k+NgcC/OXuVGOCILE7X9UGAeRckxrEaRASgGhBPxDU1/XZfVZWX5SAGOCLr0HTdMRYQ90BiAMtBRKfRIIAVwhb8TVlZ5WcsBzHAEXWQfkCcV3fMhSl+BoEcVoSIQhAQwFIptAcMw9jNchADHFEEg5vP6Zwthfg5IHuzIkTUCiYEVksp7vV6vR+zHMQAR9TewQ34Ba+4EVEYg9wmQPulYRjvshzEAEcUJrm5ufFHDh2aLyF/BiCLFSGidgpyq0wTv/b5fDtZDmKAI2o9ze10TpXAA7ziRkQRDHKrbQHzZwcqKj5nOYgBjqgFdN0xHFI8COAyVoOIOuATsklI+bi9KXgflx8hBjiiZoNb5kAhtQckMITVICILqIPEI/GJib8tLS09wnIQAxzR1zgcjovsmnhQAqNZDSKyoEMC4v6u3bo9snPnzkaWgxjgKKbpup4OKX8ByP8BYGdFiMji9guJX5T7fIsBSJaDGOAopng8niTTDHwfEncDSGVFiEglEnhTCO1OwzBeYTWIAY5igeZ2OvOlwP0APCwHESmd4ySWSyF+6vV697EcxABHUUnX9csh5V8BOZDVIKIochwSDzcFg/9XWVlZy3IQAxxFBY/H080MBu8F5G0AbKwIEUWpMiFxT7nPt4ilIAY4UtmXt0sfApDOchBRjHy6Ph8Myu/7/f6PWAxigCOlOJ3OIZqGv0LiYlaDiGLwE7YJwMONjYFfVVVV1bAgxABHlpaVlZUWbGr4rYS4iWOMiPhJC68w8VPeViUGOLIst9M5XQosAJDBahARfeMTd6OU4nbOViUGOLIMjycjxwza/w7I4awGEdEZHYPArw3D9xCAAMtBDHDUIXJychKOHav9GSR+CiCBFSEiCsk7EuJmr9e7g6UgBjiKKLfb3Veawf8AuIzVICJqsQAg/gYhfmYYxjGWgxjgqF1lZ2cnNtbX3weBH4FruhERtfWT+HPTxI0+n+9FFoMY4KhduN2ZV0tTewxAH1aDiChspID8d2PAvJM7ORADHIWNx+NJCgab7hcQdwDQWBEiovaIcdgjhZjv9XpfZjGIAY7axOl0XqkJLAJwAatBRBSBGAfx106dO/9kz549DSwHMcBRS9l13XknJH4NIJ7lICKKqJ0Q2lzDMN5lKehUfACdTsvhcPTqkpq8DhDzOU6IiDpEJoScn5KSbKupqX0ZgGRJ6Eu8AkffGhMul+smAflHAJ1ZDiIiC5B4TbMHC8rKKvewGMQAR9/gcDgy7Zp4QgKjWQ0iIsupkRC3er3eEpaCGOAIAOB2OIZKIRZDQGc1iIgs/cG9uDEQ/B8uN8IAR7HNruvOn0PiF+DyIEREqigVppxd7ve/zlLEJj6cHsNcLlfP1JTOGwAxl2GeiEgpXaGJwpMTHF4CJzjEHH5oxyi30zldavg3JLqwGkRESn+SPyWErbC8vPwgixE7eMss9th1p/O3UmA5wxsRURSQGCvN4Htud+bVLEbs4C3UGOJ2uz0pyclPQWA2ePWViCiapEKKwpTU5MaamtrtLEf044d4rIQ3p/N6KbAUgIPVICKKZvLJxPrGor2HDx9lLRjgSOE+1nXnTyDxAHjLnIgoVnyqmXJamd//IUvBAEeKyc7O7trYUL8UwChWg4go5tQJiXnlPt9KliL68Bm4KOV2u88LBpq2AriK1SAiiknxEJiWkpycVFNb+zy41EhU4RW4aAxvTudYqaGEs0yJiOikLfa4+Lz9+/cfZimiA5+JirJAruvOu6TAeoY3IiL6mlGBxsY3nU5nLksRJR/4LEF0SE9PT4mPi1sMyImsBhERnUE1hJxrGP71LIXa+AxcFPB4PG5N4GkA17MaRER0FgmAmJWSmixqampfYDkY4KijwpvDMcCEfA5Ab1aDiIhCIABcl5KcnJXVs+eWysrKIEuiZieSotxO5zQpsBBAJ1aDiIhaTm43pZjs8/kqWQu1cBKDosH75GSF5QxvRETUho+TazQNr+m6fgFroVjPsQRqycnJSThWV/MYIOawGkREFCaHTIkpPp/vRZZCDXwGTiEZGRnJZjCwFhCTWQ0iIgqjJCGQl5La+fOamrqPWA4GOAqTnunpLsTZtgFiEKtBRETtkwnEFM5QZYCjMHE6nRdKm/YCIM5nNYiIqB2dmKGaktKtprb2GXD7LUt3FFmY2515tTS1DQC6sxpERBQ5cq1mi5tTVlZ2nLWwHs5CtTCXyzVVmtrzDG9ERBR5YrIMBjb3Skvj1oxW7B2WwJrcTmeBFHgMgJ3VICKiDgwKH2n2wMgDB6oMVsM6eAXOgnTd8X0p8ATDGxERdTQJXGQG7C87HI5erAYDHJ0xvDnvghR/Aa+OEhGRdUJcL5tNvOJwOC5iNayBIcFCfeF2uf4kIe9gKYiIyKIOaaYcU+b3v8FSMMDFvH5AnNfpXASBWawGERFZXLWEGO/1el9iKToO14HrYLm5ufFVdtsyCExnNYiISAEJApiZktrprZqaur0sR8fgM3AdHN4OH6paLoEprAYRESmkE6S2Qdcd41mKjsFbqB0kJycn4Vht7QoITGA1iIhIUY0Q2kzDMJ5kKRjgop6u650g5ZOAHMFqEBGR6iFOQsz2er1rWIrI4TNwEeZwODprGjYCGMZqEBFRNGQJITAltXPy7pra2l0sBwNc1PF4PElCyA2QGMpqEBFRVOUJgSkpqZ0/ramp+4jlaH+cxBAhubm58cFgYBXDGxERRW2Ig1ik6w4+280AFz3h7fDhg6sFMIbVICKiqCURBylWuh2OcSxGu6dlak/9gLhKm20VAE61JiKi2MgWQkzrkpz8TnVt7WcsBwOckvUVTmcxBKayFEREFEuff1JgSmpy8qs1tbWlLEf4cRmR9qPpLlcxIGezFEREFKNqhSlHlPv9r7MUYQ4ZLEH7cLtcf2R4IyKiGJcsbWKL2+3uy1IwwKkQ3u6XkHewEkREFPMkukgz+LTb7T6PxQgf3kINM113fA9SPMxKEBERfSNw7NXsgcEHDlQZrAYDnKW4nc4CKfAE60pERHTa0PERNNt15eXlB1kNBjhLcLlcUwTkCnBmLxER0dmSx+vBoBzu9/vrWIzW4zNwYeBxOAYIyMUMb0RERM2QuErTxAoAdhaj9Rg42sjpdF4ITWwDkMpqEBERNU8AvVNSUtw1tbXrWQ0GuIjr0SNdh9SeA+BiNYiIiFrk8pTkZNTU1r7IUjDARUy3bt1SbZr9WUBcwGoQERG1gsB1KcnJlTW1tW+xGAxw7a4fEFfftes6ANewGkRERG0KcaNSUju/X1NT9wmL0ZKyUYu5XM6FAihgJYiIiMKiFkK71jCMd1mK0HAWagu5Xa57GN6IiIjCKhmmudHtdntYitDwClwLnFzrbSWDLxERUbt4J2jKa7lGXPMYREKk6/rlAnIRa0ZERNRuLrdrgp+1IeAkhhD06JGuS1NsA5DOahAREbWrPqkpKXE1tbXPsRQMcK2WkZGRLGDbCojzWA0iIqKIGJyanFxaU1v7PktxerxEeXYiLs72GCD6shRERESRIzX82+VyDWYlGOBazO10/hwSM1gJIiKiSCc4xAnIFR6Px81ifBtnoZ6By+UaKSCfAm8zExERdWRSeb1Tp+Tr9uzZ08BifIXh5DR0XT9fCPk0gCRWg4iIqEN5Gpsas2pra59kKRjgzig9PT3FpolnAfRgNYiIiDqeAC7lnqnfxGfgTqlHfLx9CYALWQoiIiJLJZY/c1IDA9xpuZ3OeyAxjpUgIiKymBOTGlb26JGusxgMcF8Pb9dLgXtZCSIiIstymAH7EgD2WC8En4EDkJGR4dTs2jMAUlkNIiIiS8tOSUmJr6mt3cYAF9vsXbukbgSQy1IQEREp4ZrklJQPamtrd8dqAWJ+HThdd/4BEnfyvUAUXVJSUnDFFVfg0r590bdvX7hcOrp06YKuXbpAAjh69CiOHj2KsrIyvPfuu3jn3Xfwzo4dOH78OItHpAR5JGiin9/v38sAF3PhTZ8Eaa5hkCWKDna7HddfPxRTp07FDSNHIiEhoUU/X1NTgw0b1mPF8uV46y2uVkCkgB2dOidfE4uL/MZscHG73R5pBt8D0J3jn0h9gwdfi/vuuw8X9OkTlt/36vbtuO++e7Fz504Wl8jSQUb+udzr/yEDXGzQdN25FRLXc+gTqS0rKwt//svDGDBgQNh/t2maWLRwIX71q/vQ2NjIYhNZk4SQkwzDv54BLsrpuvPXkPgFxzyR2oaPGIG//OVhdO3atV3/zocffojv3DgfZWVlLDqRNVXZ7IFLDxyoMmLlgGNuHTiXy3UtJO7mWCdS2y3f/S6eeGJhu4c3ALj44ouxYcNGnHNOLxaeyJrST64PFzOra8RUgMvKykoTkIvB5VOIlDZ7dh5+8YtfQojI3UTIdDiwYuVKuN1udgCRBUlgiNvl+mmsHG9M3ULVnc51EJjAYU6krgkTJmLB3/4GTeuY75+7d+/GuLFjuNwIkTUFIMwhhlHxarQfaMxciXK5XDcLgR9xbBMp/T7G4uJiJCUldVgb0tPTkZySjOefe44dQmQ9GiCGJiQm/ufYsWNRPfMoJgKcw+E4RxNYCyCBY5tI0bOypuHxx59ATu/eHd6Wvn0vw44db2Pfvn3sGCLrSbPZRHpNbd2GKE+q0X/et2niCQApHNNE6poxYyauHjjQEm0RQuA3/3c/bDY+TktkTeImXXeMZ4BTmMvluAvAtRzMROqy2Wy4/Xu3W6pN5557LsaP5yO1RJYlxWOZmZkOBjgFud3uvgLiPo5iIrVNmzbdkkt4/OCHP+ywyRRE1KwMu832z6j9YhutB5aTk5MQaGzYAsDFMUykLiEEFvzt7+jWrZvl2ta9e3d8+MGH+Pzzz9lRRNZ0QWpy8r6a2tr3ou3Aovar47G6uvskcBHHLpHaBg0ajJycHMu2r7CoiJ1EZGFSw591Xe/BAKcAXdcvg5B3ctgSqc/qAWnIkCHo1Ys7NBBZN8Ghi5TmPxjgLC43NzceMBdCIo6jlkhtDocTI4YPt3QbhRCYO7eAnUVk5fcpMMblcuUzwFnY4cMHfw6JizlcidRXWFgIe5z1v4vNmj27QxcXJqJQQpz8S0ZGhpMBzoLc7sxLAfyUw5RIffa4OMyaPUuJtqampmLixEnsNCJr6xYXRbNSoynA2aWpPcZbp0TRYeyYsXA41PmyPP/GG9lpRFYnMMHtdM5ggLMQXXf8CEA/jk6i6KDa7M7c3Fxcdvnl7Dgii5MCD2dlZaUxwFmAy+XqCSl+zmFJFB3OP/989O/fX7l2FxUWsfOIrM8RbGr4LQOcBQghFwDozDFJFB3mzZsPIYRy7Z4wcSLS09PZgUQWJyFu0nX9Gga4DqTrjlmQGMvhSBQdkpOTMWnyZCXbHh8fjxkzZrITiaxPQJr/7Ad1n5tXOsB169YtFaZ4iOOQKHpMnz4DKSkpyra/sKgINpuNHUlkfbmGy/EjBrgOkJAQ/zsI6ByDRNEjf+5cpdvv8Xhw3fXXsyOJFCAgftEjM/NcBrhIniQdjgECuJnDjyh6DLzmGlxwwQXKHwcnMxApI8m0aX9lgItgu4OaeBhRupcrUayKluBz/dChOOcc7o9KpAIJjNZ1xwQGuAhwuVw3CqA/hx1R9Mh0ODBy5MioOBYhBObMmcNOJVLlPSvFn7KzsxMZ4NpRVlZWmoC8n8ONKLrMzZ+rxL6noZo1ezYSEhLYsUQKkECvpvr6HzPAtaNAY+OvAWRwuBFFD7vdjrwou2KVlpaGCRMnsnOJVAlxAj9zOp3ZDHDtwOl05kLguxxmRNFl1OjRcDqdUXdcnMxApJQkIfB7BrjwE5rA3wDYOcaIGHRU0Peyy3DppZeyg4lUCRrANLfbMYwBLozcTuc0ANdyeBFFl969e+Oqq6+O2uMrKCxkJxMpRJriYShwsUiJAJebmxsvgQc4rIiiT1HRPCX3PQ3VpEmTkZaWxo4mUseFLpdrHgNcGBw5ePB7EMjhmCKKLp07d8bUadOi+hgTExMxYyb3RyVSiYD8v27duqUywLVBVlZWmhS4m8OJKPpMmz5d6X1PQ1VYUAhN47rjRArJTEiIs/SyIpY/owSamu4D0I1jiSj6FMwtiInj7JmdjSFDhrDDiRQiIO7UdT2LAa4VTmwwK7lsCFEUuvrqq3FBnz6xE1Y5mYFINUlSmr9hgGsF06b9DkA8xxARA43qhg8fgaysLHY8kUIEkK/r+uUMcC3gdDqvlMAUDh+i6JOZmYnRo8fE1DFrmhZ1u00QxcJbF9K835oNs2zF8P9OhF8iijZz8vMRF0X7noZ83HPyuT8qkXpGuZ3O6xngQqDrjuEQGMYxQxR97HY75szJj8lj79atG8aOHctBQKQYU+C3sNhFJYtegRO/4XAhik4jR46Ey+WK2eMvLCriICBSjAD667pjHAPcWbhcrimQuIrDhShKA0yMb/B+xRVX4pJLLuFAIFItxEnxgJVyk9UCnE1A8uobUZTKycnBwGuuifk65MfI+ndE0UQCF7lcrtkMcKfhcrnyAFzIYUIUnQqLiqJ639NQTZkyBV26dOGAIFKMkPI+WGSjeysFOJuAvIfDgyg6JSUlYerUaSzEyVpMnz6DhSBSLsEhx+105jHAfY3L5ZoF4HyODqLoNHXaNF51+pp58+fxaiSRgiTwC1jgKpxVApxNQP6cw4IoeuXnz2URviY7+xwMGjSYhSBSjUDOyYtODHC67pgJ4AKOCqLo1L9/f1x88cUsxCm4pAiRqhkOv0QHX4WzQoDThBQ/43AgYlCJNTfccAM8Hg8LQaQc2dvlcs2M6QCn647pEriIg4EoOnXv3h1jxnD3gdOx2WzIy+P+qEQqOvnoly1mAxykuIvDgCh6zcnPR3x8PAtxBvlz57I+RGq6wO10TonJAOd2OscCuIxjgCg62Wy2mN33NFTdu3fH6NFjWAgiBUkh70YH7ZGqdeyBg1ffiKLYiBEj+IxXCPiMIJGqRF9ddwyLqQDncTgGAOAceiIGk5g3YMAA9OnDTWiIlCS1DrkY1WEBzhTibvY6UfTiOmctU1DA/VGJFE1ww09elIr+AOdyufpAYBw7nSh6Fc2bB03TWIgQTZ02DSmpqSwEkYJMm7gzJgKcEPIuWGsfViIKo8TEREyfPp2FaIHOnTtjGveKJVKTxBSPJ6N3VAc4h8ORCYlZ7G2i6DVlylR07dqVhWihwqIi7o9KpCabGbB9P6oDnM0mbgeQwL4mil5z+TxXq/Tu3RtXDxzIQhCpSGC+x+PpFpUBLicnJwESN7OXiaJXv35X4JJLLmEhWqmwoJBFIFJTJzMQmB+VAe7Ysdo8AA72MVEUBxAuHdImo0aPhtPpZCGIVCRwOyK0yX1kb6FK+X32LlH06tatG8aN4wTztrDb7dy9gkhdPd1O56SoCnBup/N6QPRl3xJFrzlz8pGQwEdc2yo/Px/2uDgWgkhBUuCOqApwUsjvsVuJopfNZsOcfOtfOQo0NSHQ1GTpNmY6HBg5ciQHFZGaBrlcrn5REeDcbrcHEOPZp0TRa+jQYejRo4fl27llyxY8/cwzlm9nUWERBxWRogRwa1QEOCmDNyNCD/URUcdQZfJCSUkJihcvtnw7B15zDS644AIOLCIlybysrKw01QOcHVLOZ2cSRa+e2dkYMmSI5du5b98+vPLKy3j55ZfwxRd7Ld/e/LlzObiI1JQUCDS06xu43QPcidkYws2+JIpehQWFSux7uqSkBKZpQkqJJSVLLN/e6dNnICUlhQOMSEVSfBdAu22t0u5nXAl8l71IFL0SExMxY+ZMy7czEAhgxcoV//3fy5YtRUNDg6XbnJycjEmTJ3OQEampj9PpvFbJAOfxZORAYCj7kCh6TZo0GWlpaZZv59NbtqDC7//v/z506BA2bXrK8u2eP/9G7o9KpChNiFuUDHDBoO1WtOPlQyLqeAWFamz9VFxc/O1/p8BkhvPOOw/9+/fnQCNSkpzqcDgylQpwubm58QLgE7hEUazvZZfh0ksvtXw79+/fj1deeflb//7111/HJ598Yvn2c3syImXF2zWtXRbIbLcAd+jQoXEAMth3RNFLlbXKvpy8cKb/ZnVjx4yFw8H9UYlUJNE+K3G0W4ATQs5jtxFFr7S0NEyYONHy7QwEAlixYsUZ//uKFctx/PhxSx+DPS4Os2bP4qAjUlOu0+m8UokAl5mZ6YDEKPYZUfSaPTtPiX1Pn376afj9vjP+9+rqamxYv97yx1FYWMj9UYkUpWkI+0WtdglwdrtWCO68QBS1hBDIm5OnRFtLipufqLC42PqTGRwOJ0YMH87BR6SmPI/Hk2T5AAeJIvYVUfQaOmwYzjmnl+XbuX//frz88svNvu6dHTvw4YcfWv54OJmBSFESXUyzaZKlA5zb4bgKQB/2FlH0UmXywtIlS844eeFUJSXFlj+eQYMG49xzz+UAJFIyxGlhvY0a9gAnbYJLhxBFMY/HgyHXXWf5dgYCASxfvjzk169ZvRo1NTWWPiYhhDLr7hHRtxLSMI/HE7atRcMd4OyQmMZOIopehUVFsNlslm/nM888c9bJC6eqq6vDk08+afnjmjljJjp16sSBSKQeLRgMTrdkgPM4nTcAyGQfEUWn+Ph4zJgxU4m2lrRiYsKihQstf1wpqamYzP1RidRMcJB54ftdYSSFnM3uIYpeEydNQnp6uuXbWV5eHtLkhVPt2rUT7737ruWPr2gel9kkUpEErnS73edZKsDput5JQkxi9xBFL1UmLxQXL0YwGGzVzy5WYH/UCy/MxRVXXMkBSaRiiAsGw3KxK4xX4IITACSza4ii00UXXYS+l11m+XYGAgEsX7a81T//5JNrcfToUcsfJyczECkrLHujhi/AmYK3T4mi2Pwbb1SinS2dvHCq+vp6rF69yvLHOWHCBGRkcLtpIuUI5Lhcrn6WCHC90tK6QHDrLKJolZqaigkTJirR1iVhWM9t0cKFkFJa+jjj4uIwaxa/NxMpmeGknGGJAHc8MXE8gHh2CVF0mp2Xh6SkJMu3s7y8HC+99FKbf89nn32GN9980/LHO7egQIklXYjo1ASHNi8nooWnHeZU9gZRlJ5nhEB+vhrrc7dl8sK3ftfiRZY/XrfbjWHDuD8qkYLOcbvdfTs0wOm63gkQN7AviKLTddddh169rL/vaVsnL5xqw4YNOHjwoOWPm5MZiNRkmoE2Xfxqc4ATpjkWAJcFJ4pSqmyg/uyzz7Zp8sKpmpqasHLFCgZsImoXAqJNt1HbHOAkwNunRFHK7XZj6NBhSrR1STtsRr9o8SKYpmntDwGFbnET0Tec73K5+nRIgMvJyUmAwGj2AVF0KigsVOIhecMw8OKLL4b99+4rLcX27a9Y/vhVmWRCRKeEMClbvX98mwLc8dra4QBS2QVE0UelZSrCOXnhVCrszKDSMi9E9BUpMKlDApwp5HiWnyg6TZgwQYl9T09MXljWbr//6S1bwvpsXXtRZaFlIvqGy9xutyfSAU4IiLGsPVF0UmXywtatW+HztV/ACvfs1vaiylZnRPTNLGWemAwauQCn63pfAB7Wnij65Obmol+/K5Roa0k7TF44VXveog2nosIiDl4i1RKclJENcDBN3j4lilJF8+Yp0U7DMPDiCy+0+98pLy+PyN9pq4mTJqF79+4cwERKJTgMP7GmboQCnBTg7VOiKJSamopJkyYr0daSkuKIXRlTYTJDfHw8ZsycyUFMpJYkYZrXRyTAORyOTAFcwZoTRZ+ZM2eiUyfrr80dCASwbOnSiP29bdu2oqyszPJ1KSqax/1RiRRjCoyLSICz2cRYhGkfVSKyDiEE5haosTXTtm3tO3nhVMFgEMuWLbV8XTweD4Zcdx0HM5FK5160/K5m60KYCe59ShSFBg++Fueee64SbS0uLo743ywpKUGgqcnyteFkBiLl9NB1/YL2DnACAkNZa6Loo8rSIZGavHCqCr8fz27davn6XD90KLKysjigiZQSbNHFsRYHOF3XLwOQyUITRRdd1zF8+HAl2rpkSUmHLetRvHiR5eujaRrmFhRwUBMpRYxo1wAHmCNYZKLoM3duAex2u/W/owaDWLG84xbWffHFF1Fa+oXl6zR7dh4SEhI4sIlUIXF9bm5ufPsFOBMMcERRJi4uDrPz8pRo67ZtW1FeXt5x51gpsXSJ9SczpKWlYfyECRzcROrofOjQoavaJcBlZ2cnQmAga0wUXcaNG4+MjAwl2toRkxdOtWRJCRobGy1fK05mIFJN6Hc5WxTgGhsbrwWQxAITRZeCQjWWDvF6vXjh+ec7vB2HDh3Cli2bLV+vyy6/HJdeeikHOJEihBDtE+Ag5fUsL1F06dPnQvTv31+Jtnbk5IVTqbAzAwBOZiBSicQVvdLSurRHgBvC6hJFF1WWDgkGg1i+bJll2vPq9u349NNPLV+3yZOnoGvXrhzoRGqwHU9MvDqsAU7X9U4Q6MfaEkWP5ORkTJ6sxr6nzz23rUMnL5zOkiUllq9bYmIi90clUogGXBvWACdE8GoA8SwtUfSYOXMWkpOTlWirFSYvnGr5smU4fvy45WtXVFgETePuh0QqkDDDG+CkFNeyrETRZU5+vhLt9Hq9eP655yzXrurqajy1caPl69czOxvXXstTOJEaxJW6rncKW4ATEnz+jSiKDBo0GOeff74SbV26ZIllJi+cSpXJDKrMNCYixItgsNn14EIKcDk5OQkSGMCaEkUPpSYvLF9m2fa9/fZb2Llzp+XrOHz4CPTo0YMDn0gB0tb8Xc+QAtyxY8euBJDIkhJFB4fDiRtGqLGpynPPbUNZWZml26jCZAabzYa8OXM4+InUMDgsAQ6meTVrSRQ95s6dC3tcnBJtLSm2fjhatXIlamtrLd/OOXPyER/PuWhElicxAIC9zQFOCN4+JYoWdoX2PfV6vXjuuW2Wb2dtbS3WrVtn+XZ2794dY8eO45uAyPo6ezyZF7Y5wEnIq1hLougwZvQYOJ1OJdpq5ckLp1r4xONKtFOVZx+JYl0waLuqTQGuR490HRBulpIoOqjyAW6apqUnL5xq586deP/99y3fziuvvBIXX3wx3whEFiekHNCmABcIxPH5N6Iocd5552HAADWeiHhum/UnL5yqWJElRfLncn9UIusnOLTtCpwQks+/EUWJefPmQwihRFtLSkqUq+/atWtQXV1t+XZOnToVXbp04RuCyNr6ZGVlpbU6wEGCz78RRYHk5GRMnjJFibaqMnnhVMePH8ea1ast386kpCRMmzadbwoiaxOBQODK1gY4DcBlrCGR+qZNn46UlBQl2rp0yRIEAgEl67xw4RNKtHPe/HnKXI0lilVSBq9oVYDTdf08AMksIZH65ubPVaKdqk1eONWnn36Kt956y/LtPOecXrjmmkF8YxBZmBCib6sCHBDk1TeiKHD1wIG4oE8fJdr6/HPPKTd54VTFixcp0U4uKUJk9W+0Z74L2kyAEwxwRFGgqFCdD+ri4mLl671+/XocPHjQ8u284YYb4HK5+AYhsiqBc3ulpXVpeYAzcTmrR6S2TIcDo0aNUqKtFX6/kpMXTtXY2IjVq1ZZvp12ux35itxaJ4rVCHc8MfGSlgc4gUtZOyK15efnq7PvaUmJspMXTrVw4UJIKS3fzrw5cxCnyPggiskEJ8zLWhTgdF3PApDO0hGpy263Y86cfCXaapomli1bGjW1Ly39Aq+9+qrl25mZmYnRo8fwzUJk2ZPj6ScynOUKXLAvq0aktpGjRimz7+kLzz+v/OSFUy1WZGcGTmYgsjAhW3YFTkpcxKoRqY2TFzrWps2bUOH3W76dV111lTKzlIliMMFdAMAWcoATwIUsGpG6evfujasHDlSirRV+P7ZFweSFUwWamrBi5Qol2lrA/VGJrCrR48noFXKAAwQDHJHCCouKlFlpf8mSJQg0NUVlP5QUF8M0Tcu3U6WdOohijWlqF4Ya4DQA57NkRGrq3Lkzpk2dpsiJKbomL5xq//79ePHFF5UYM1OnTeObh8iCpERuSAGuR2bmOQA6sWREapoydSpSUlOVaOsLL7yAAwcORHV/qLIzQ1ER90clsqLTPdZ22gAXtItclotIXYWFhcq0taR4cdT3x9atW+Hz+Szfzt69e+Oqq6/mG4jIekK7AgdOYCBS1oABA9Cnjxpv4YqKCmzdti3q+yQQCGBJSYka4b+gkG8iIsv59kxU7SwvJCIFqbSm19IonrxwqiVL1NhlYvSYMcqsHUgUQxJ7ZGZmNx/gpMxhrYjUk5mZiTFjxirRVtM0sXTpkpjpG6/Xq8Q+r3a7HXlz5vDNRGQxAZstp/kAB8EAR6Qglfa1jIXJC6dSZWeGuflzldk/lyhWCCnPPWuAy8jISAbgYKmI1GKz2TB7dp4y7V1SUhxzffTC889j//79lm9npsOBkTfcwDcVkYVIgbMHuLi4uN4sE5F6brjhBng8HiXaWlFRgWe3bo25PjJNE0uXqHHbuFChbdiIYoGQOPstVGGa57JMROpRafLCsqVLY2bywqmWLlVj4sY1gwbhggs4n43IOgmumQAnNU5gIFLNOef0wqBBg5Voq5QSy5Yvi9m+qqysxJYtW5Ro65z8fL65iKyj19dz27cnMUiNV+CIFFM0T519T1944QXsKy2N6f5SZTLDjBkzkZyczDcYkTUk6rruPkuAk+ewRkTqSEpKwvTpM5RpbyxOXjjV9u2vYO/evZZvZ3JyMiZNnsw3GZFFmKbZ68wBTogslohIHVOnTkWXLl2UaGtFRQWeefbZmO8zKSWKFdlCbP78G/kmI7IIIUSPMwU4AUgPS0Skjvy5Bcq0ddmy2J28cKoVy5ejoaHB8u08//zz0b9/f3YYkSWYpw9wTqczHUASC0SkhiuvvBIXX3yxEm2VUmLZsmXstJMOHz6MjRs3KtFWlWY4E0WzM16B0zStB8tDpI4ChdbqevHFF2N+8sKpihcvUqKdY8eOQ0ZGBjuMqONlnTbAAUEGOCJFdO/eHWPHjlWmvZy88G1vvvkmdu/ebfl2xsXFYXZeHjuMqKOZONMzcIIBjkgRc+bkIyEhQYm2VlRU4OlnnmGnnUZJsRrBdu7cAtjtdnYYUUcS8gxX4ExwAgORAmw2G/LmzFGmvZy8cGYrV63EsWPHLN9OXdcxfPhwdhhRxya4runp6SnfCnBCSDeLQ2R9w4ePQI8ealwwl1Ji+bLl7LQzqKmuxvr165RoKyczEHW8hIQE17cCnAQyWRoifpCG00svvYTS0i/YaWehys4Mgwdfi3PP5WY9RB38pTjzWwEO0BwsDZG19czOxuDBg5Vpb4kiC9Z2pPfefRcffPCB5dsphMBchdYdJIrSAOc4TYCTDHBEFjevaB40TVOirZWVlZy8EGVBd+asWejUqRM7jKijvkidJsBpANJZGiLrSkxMxPQZ6ux7yskLoVu7di1qamos387U1FRMmsT9UYk6jIZv3kJ1Op3dAXCOOJGFTZ48BV27dlWirVJKLFvKnRdCVVdXh7Vr1ijR1qJ589hhRB3nmwHuy3uqRGRdcwvUef7o5Zc5eaGlFi1SY2eG3Nxc9Ot3BTuMqAMIiW/eQrVzBiqRpV3erx8uvfRSZdpbXMydF1rq44934Z0dO5Roa0FhITuMqAPIU6/AQYjuLAuRdRUqtO9pZWUlnn76aXZaKyxWZDLDhAkTkJ7Ox6aJOkD3bwQ4U4iurAmRNXXr1g3jx49Xpr3Lly/j5IVWWr9uHY4cOWL5dsbHx2PWrNnsMKJIE+j6jQAnpGSAI7Ko2bPzlNn3lJMX2qa+vh4rV65Uoq0FhYWw2WzsNKKInmRPDXC8AkdkSZqmIX/uXGXa+/LLL+GLL/ay49qgePEiSCkt3063243rhw5lhxFFVlJ2dnbiV7NQBa/AEVnR0GHDkJWVpUx7S0pK2GlttGfPHrz++utKtFWlZzOJokVdXV3XryYxSF6BI7LkB2SBOrP9gsEg3nv3XXZaGCxWZEmR6667Dj2zs9lhRBEUFxf3VYCT4BU4Iqvp2bMnrrv+emXaa7PZsGnzFgy85hp2Xhtt2vQUqqqqLN9OTdNQwP1RiSJKiEDaV8/AQXZhSYispaCgUJl9T7/UvXt3LF26DLfddjs7sA2ampqwYsVyJdo6Oy8PSUlJ7DSiCAkGta/dQoWWzJIQWUdiYiJmzpqlZNvtdjvuvucePLJgAT/Y26B48WKYpmn5dnbp0gXjJ0xghxFFiBCi09cCnORZlshCJkyciLS0NKWPYfLkKVi/YQN69uzJDm2Fffv24eWXX1airTfe+B12GFHkfD3AoRPrQWQd0TK778ILc/H0M89i5MhR7NRWKF6sxmSGiy66CH379mWHETHAEcWuiy++OKo+DFNSUvDYf/6Du++5R7ln+jraM888A5/Pxy8dRPR1SV8/k/IWKpFFzJ9/Y9QdkxACt912O554YiFSU1PZySEKBAJYtnSpEm2Nhtv+RGow/3sFTgBIZEGIOl60PxA+bPhwbN6yBRf06cPODlFJSTGCwaDl26nyxBsixZy4AqfretLJEEdEHSwWlmTIzj4H69dvwIQJE9nhITAMA88/95wSbVVx6Rsi9ZychSqE4O1TIiu8JYVAfn5+TBxr586d8fd//AO/e/D3sMfFsfObsbh4sRLt7NmzJ6677jp2GFH7OhHgGhsbefYksoDrr78e55zTK6aOOT8/H8uXr0BmZiYHwFk8t20bDhw4oERbOZmBqJ2/7EPYNQBISEiwsRxE/ODrKFdddRU2b3kal/frx0FwBqZpYunSJUq0deiwYcjKymKnEbUXKW3ayRMDAxxRB/N4PLh+6NCYPX6n04nVq9fgO9+5iYPhDJYuWYJAU5Pl26lpGvLnzmWHEbVXfhM4EeCCwSADHFEHKygshM0W22/F+Ph4/OrXv8ZfHv4rEhM5Mf5UFRUVePqZZ5Ro6+zZeUhISGCnEbWD/95CjYvjFTiijg4uM2dy+YUvTZs2DevWb0CPHj1YjFMUL1ZjMkO3bt0wfvx4dhhRe/jqFmocAxxRB5owcSLS09NZiK+56KKLsHnL07j22iEsxte8/PJL+OKLvUq0lZMZiNopv315C5XPwBF18AddQSGLcBppaWkoLinBbbfdDiG4VOWJL94SS0rUmMxweb9+uOSSS9hpRGEmIE/cQrVLyQBH1EFyc3M5+/IsbDYb7r7nHvzn8ceRwi24AADLli1FQ0ODEm2dW1DADiMK+zc5ceIKXBMgWQ2ijjFv/nwWIQQ33DASTz21Ceedd17M1+LQoUPYvHmTEm2dMmUqunbtygFMFE5CmNrJb7gBVoMo8lJTUzFx4iQWIkTnnnsuNmx8CmPHjo35WqgymSExMRHTZ8zg4CUKZ36DDGoAoGlNQZaDKPJmzZ6NTp06sRAtkJycjH/+69+4+557YnrZlddeew2ffPKJEm0tKiri/qhEYSQFAiduoTZpDHBEkf4GJQTmzuXzQa2t3W233Y7ly1fE9OzdJSUlSrQzO/scDB48mAOXKHwJ7ssrcAxwRJE2ZMgQ9OrVi4Vog6sHDsTmLU+jb9++MXn8K1Ysx/Hjx5VoawGXFCEK35dYmAxwRB2lsIgfaOGg6zrWrH0Ss2fnxdyxV1dXY8P69Uq0dcSIEVyYmShMpBAnbqHaGxoY4IgiyO12Y9iw4SxEmCQkJOAPDz2E3z34e8TFxcXUsS8uVmMyg81mQ17eHA5WovAkuBNX4Brsds5CJYqg/LlzY37f03apa34+1q3fALfbHTPH/M6OHfjoo4+UaOuc/HzEx8dzoBK10X9voTY2NjawHESRERcXF5O3+yLl0ksvxeYtT+OaQYNi5phLSoqVaGf37t0xZgyXgCFqO+24BgCHDh06xmIQRcb48eORkZHBQrRzUFiyZCluu+32mDje1atWoaamRom28tlPorA49uXCPAEINLEeRPwAixZ2ux1333MPFvztb1G/1l5dXR2efPJJJdrav39/XHzxxRygRG0h5fGvr6zIq3BE7ezCC3NxxRVXshARNGnSZKzfsAE9s7Oj+jgXLVyoTFvn5M/lwCRqS34DGOCIIqlo3jwWoQP06XMhnn76GYwaNSpqj3HXrp147913lWjrtGnT0KVLFw5MotY79t9pcKnJyf8DII01IWofKamp+POf/xxzy1xYRUJCAiZMmIjEpERs374dUsqoO0bTNDFy5EjLtzMuLg4+nw/vKhI4iaxGAKt4BY4oQmbOmMl9Tzv6pHdyC66FCxdF5RWgJ59ci6NHjyrR1sKiIgghOCiJWkFqX3sGzmSAI2rX4FBQWMhCWMTQYcOwafNmXNCnT1QdV319PVavXqVEW3NycjDwmms4GIla57+zUCEgjrIeRO1j0KDBOPfcc1kIC8nOPgdPPbUJ02fMiKrjWrRwoTK3hwu5PypRq0ipHfnqFqqQR1gSovah2tW3tWvX4P3334/6fklMTMSf//wX3HvvfbDb7VFxTJ999hnefPNNJdo6cuRIOJ1OniCIWshmml8FOCHlYZaEKPwcDiduGDFCqTb/9eGHMWniBCxfviwm+ujmW27BipWrkJmZGRXHU7x4kRLttNvtyOeSIkQtJu32w/8NcFKKIywJUfgVFhbCrtDM0zfeeAOffPIJGhsb8b8//CHu+smPEWiK/nW+BwwYgM1bnka/flcofywbN27EwYMHlWjrnPx8pd4fRFbQ2Nj41RU4KSSfgSMK9xWGuDjMmj1LqTYvOWVfzeLiYsycOQNVVVVR319OpxOrVq/Gd75zk+ond6xcsUKJtmZmZmL06NE8WRCFLlBZWVn3tVuovAJHFG5jx4yFw6HOMz7V1dV46qmnvvXvX3/9dYweNRIffPBB1PdZfHw8fvXrX+Phvz6CpKQkZY9j0eJFME1TibZyMgNRixwBIL+axKBxEgNR2D+YFNv3dPny5Th+/Php/5thGJg6ZTKe2rgxJvpu6tSpeHLdemRlZSnZ/n2lpXj11e1KtPXqq6+OuiVdiNqPOAwAX60DZwpOYiAKo/POOw/9+/dXqs1Ll5Sc9b8fO3YMt9xyMx64/35lru60xUUXXYRNm7dgyJAhSrZ/8eLFyrR1LiczEIUW33DigttXt1CFqGBZiMJn/vwblVpp/s0338Qnn3zS7OuklFiw4BEUFsxFdXV11PdjWloaFheX4M47fwRN05Rq+5bNm+H3+5Ro67Tp05GSksITB1Fz52CBim8EOE3T/CwLUXgkJydj0uTJSrW55JTJC8157rnnMGb0aHz66adR3582mw3/e+ed+M/jjyMlNVWZdgcCASxfvlyZ98yUqVN58iBqjgn/NwJc165dKwBIVoao7aZPn6HU1YTq6upWPdv2xRd7MX7cWGzZsiUm+nXEiBuwadNmnH/++cq0uXjxYgSDQSXaWlQ0j/ujEjXn5B3T/wa4nTt3NuLEzAYiaqP8uWo9z7NixZknLzSntrYW37lxfsw8F9erVy+s37ARY8eNU6K95eXlePGFF5Ro63nnnYerrrqKJxCis5A45QrcSbyNStRGA6+5BhdccIFSbV66ZEnbTignn4u79dbv4tixY1Hfx8nJyfjnP/+Fu++5BzabzfLtVWkyg2rbzhFFmhBmxbcCnGCAI2qzIsXWtHrrrbewe/fusPyujRs2YML48di3b18MnEQFbrvtdixfvgLp6emWbuu2bVtRVlamRF3HjB7D/VGJznruOc0VuC9nNhBR62Q6HBg5cqRSbW7p5IXmfPzxLowZPQovv/xSTPT51QMHYvOWp9H3ssss28ZgMKjMvrb2uDjMzsvjyYToTAEugG9fgYMJH0tD1Hpz8+cqta9jTXU1Nm7YEPbfe+TIEczJy8OCBY/ERL/ruo61a59EXt4cy7axuLhYmT1t586dy/1Ric6g6QzPwB1gaYhaeeXAbkfenDlKtXnlqpWtnrzQnGAwiAfuvx+333Yb6uvro77/4+Pj8fs//AG/e/D3iLNg+Kjw+/Hs1q1K1NLhcOKGESN4UiH6tnq/31/57QCnSQY4olYaNXq0cs/uLF2ytN3/xtq1azBxwnhlnsFqq/z8fKzfsBEej8dybStevEiZOqq2DR1RZIgDOLnk2ylX4GwMcEStpNrkhbfffgu7du2MyN/66KOPMGb0KLz26qsxMRYuueQSbNq8BYMGDbZUu1588UWUln6hRA0HDRqs1Hp7RJHJb19daOMtVKIw6N27N666+mql2lxSUhLRv3fw4EHMmjUTjz32aEyMie7du6NkyRLcdtvtlmmTlDIiV13DZU5+Pk8uRGfIad8IcIZhGAACrA9Ry6i2gnxNdTU2rF8f8b8bCATwy1/8Anf95MdoUuSB+raw2+24+5578Le//x2dOnWyRJuWLClBY2OjEvWbOXMWkpOTeYIh+sr+0wa4k+GNM1GJWqBz586YOm2aUm1etXpVu01eCEVxcTGmT5uKiorYWLlo4sRJ2LzlaeTk5HR4Ww4dOoQtWzYrUbfk5GRMmjSJJxmik6QUZ7yFCkjeRiVqiWnTpyu17ynQ9p0XwuGtt97C6FEj8d6778bEOMnJycHGpzZh9OjRHd4WlXZmKJo3jycZoq+cJcAB+1gfotAVzC1Qqr07dryNnTt3WqItPp8PkydPworly2NirKSkpODfjz6Gu++5B5qmdVg7Xt2+HZ9++qkSNevT50JceeWVPNEQAZBSnvEWKqSQn7NERKG5+uqrcUGfPkq1uaS4xFLtaWxsxA9/+APc9ZMfK7PQbFt8uQXXwoWL0KVLlw5rx5IlJcrUjEuKEAEATLvd/sUZA5wQggGOKESqbbxdU12NDRvWW7JtxcXFmDVrJg4ePBgTY2fosGHYtHkz+vS5sEP+/vJlyzr0OciWGDduPDIyMnjCoVhXVlZWdvyMAU5KsYc1ImpeZmYmRo8eo1SbV69ejWPHjlm2fa+99hrGjx+H3R9/HBNjKDv7HDy1aRNmzJwZ8b9dXV2NpzZuVKJOcXFxmD2b+6NSjBP4Rj77VoCLb2pigCMKwZz8fEtumXQ2Ktw221daigkTxisTLtoqISEBf/rTn/G7B38f8f0/VZrMMLegADabjSceil3ym4+4fSvA7auq8gKoYaWIzsxut2POHLUWGX1nxw7LTF5oTl1dHW655WY8cP/9ME0zJsZUfn4+Vq5chUyHI2J/8+2331JmTOi6juHDuT8qxbBTHnE7wzQosZeVIjqzkSNHwuVyKdXmSO+80PYvmxILFjyCwsICVFdXx8S46t+/P7Zs2YJ+/a6I2N/kZAYiVc6JYk+zAU5A8jYq0dk+SBTb97Smuhrr169TstbPbduGMaNH47PPPouJseVwOLFm7dqIbcG1auVK1NbWKlGba6+9Fr169eIJiGKSpgWbD3CA+JSlIjq9nJwcDLzmGqXavGbNGktPXmjOF1/sxbixY/D001tiYox9uQXXw399BElJSe36t2pra5UJ90IIzFVs3UWiMDEDgRCuwJnALtaK6PQKi4qU2vcUUOs22dmCxo3z5+OB+++HlDImxtrUqVOxbv0GZGVltevfeeLxx5WpyazZsy2zryxRxL68AKV+v7+u2QAnhGCAIzqNpKQkTJ2q1r6n777zDj766KOoqP+Xz8Xdeut3lb6i2BK5ubnYtHkLhgwZ0m5/Y+fOnXj//feVqEdqaiomTpzEkxHFFCm+fWHtTHu57AZgsmRE3zR12rQOXT2/NVSbvBCKDevXY8L48di/f39MjLu0tDQsLi7BnXf+qN224CpWaEmRefPn82REscXEzpACnGEYxwRQyooRfVN+/lyl2ltbW2vZnRfa6uOPd2HM6FF4+eWXYmLs2Ww2/O+dd+I/jz+O1NTUsP/+tWvXKDPbNzc3F5f368cTEsUMgdCvwEFK7GTJiL7Sv39/XHzxxUq1ec3q1crMMGyNw4cPY05eHhYseCRmxuGIETfgqU2bcf7554f19x4/fhxrVq9Wpg6FBYUgihWmEKFdgTuJz8ERff0DQ8E1qEpKiqO+X4LBIB64/37cftttqK+vj4mx2KtXL2zY+BTGjR8f1t+7cOETytRgwsSJSE9P54mJYiK/maa5O+QAJ0+T9ohiVffu3TFmzFil2vzeu+9GzeSFUKxduwYTJ4xHeXl5TBxv586d8Y9//BO//s1vYLfbw/I7P/30U7z99ltKHH98fDxmzpzFkxPFgn2nzkA9a4Cz2YLvs2ZEJ8zJz0d8fLxSbY7GyQvN+eijjzB61Ei89uqrMXG8QgjceON3sGz5CmRkZITld6q0P2pBYSH3R6UYIN873b89Y4ArK6vYBaCehaNYZ7PZlNv3tK6uTtmdF9rq4MGDmD17VlSsfReqq6++Gpu3PI3LLr+8zb9r/bp1OHjwoBLH7fF4cN311/MkRVGe30TLAhyAAMCJDEQjRoyAx+NRqs3RPnmhOU1NTfjxj36Eu37yYzQ1NcXEMbtcLqxZsxZ5eXPa9HsaGxuxetUqZY67SLFt7YhaTJPvtjTAAZDvsHIU6zh5QV3FxcWYPm0qKioqYuJ44+Pj8fs//AF/efivSExMbEPdFiuz28X1Q4finHO4PypFLyHsLQ9wQop3WTqKZdnZ52DQoMFKtfm9997Dhx9+yM476a233sLoUSPx3nvvxcwxT5s2DWufXNfqK8eff/65Ms8RCiEwZ84cDnSKVgfLy8vLWhzgICUDHMW0onnz2m3l+/ayhFffvsXn82HK5ElYsXx5zBzzJZdcgs1bnm71FxCVJjPkzZmDpKQkDnSKQuKMd0LP+skkbbYPAARZQIpFiYmJmD59ulJtrqurw7p169h5p9HQ0IAf/vAHuOsnP0YgEIiJY+7WrRtKlizBbbfdDiFEi3528+ZNqKysVOI4u3TpEvY18Yiskd9OPwO12QBnGMYxnNgXlSjmTJkyFV27dlWqzWvWrInpyQuhKC4uxqyZM5SZadlWdrsdd99zDxb87W/o1KlTyD/X1NSE5cuXKXOcnMxA0enMd0Kbvzck8QYLSLFobkGBcm0uKV7MjgvBa6+9hvHjx2H37tj5fjpx4iRs3vI0evfu3YLxVAzTNJU4vr6XXYZLL72Ug5uiimmK11od4KQQDHAUc/r1uwKXXHKJUm1+//33OXmhBfaVlmLC+HF46qmnYuaYc3JysGHjUxg9enRIr9+/fz9efPFFZY5PxRnjRGdR4fP5Slsd4Gy24OusIcUaFT8IOHmh5erq6nDLzTfhgfvvV+ZKU1ulpKTg348+hrvvuSekCTrFixcpc2wTJ05CWloaBzZFiTNffQspwJWVVewEUM1CUqzo1q0bxo0bp1wQ4eSF1pFSYsGCR1BYWICa6tg41QkhcNttt2PhosXo0qXLWV+7detW+Hw+JY4rMTERM2bO5KCm6Dg3wXyjTQEOQBACO1hKihV5eXOQkJCgVJvXrl2Lmpoadl4bPLdtG8aMGY3PPvssZo556NCheHbrtrM+OxYIBLBEoX11CwsKlVv6h+i0AU2K19sa4ADJ5+AoRt4wmoY5+fnKtZuTF8Jj7969GD9uLJ5+ekvMHLPb7cbaJ9dh5sxZZ3zNkiUlyiy90jM7G0OGDOFgJtUFjzc27mh7gONEBooRw4YNR1ZWllJt3rVrJz744AN2XpjU1NTgxvnz8ceHHlJmO6m2SkhIwB//9Cf87sHfIy4u7lv/3ev14rnntilzPJzMQMqT2Hno0KHqNgc40zS3A5CsKEU7FU/8CxcuZMeF+9wpJR566A+49dbv4tixYzFz3Pn5+VixchUyHY5v/TeVdmZQ8YsY0Snp7JXmXxICn89XCeBjVpSimYq3Xurq6rDuySfZee1kw/r1mDB+PPbv3x8zx9y/f39s2bIFV1xx5Tf+/QvPP69MHTRNQx73RyW1v0a+FJYABwASeIkFpWim4sPPTz75JCcvtLOPP96FMaNH4ZVXXo6ZY3Y4nFi9Zg1uu+32//470zSxdMkSZY5hzpx85SYjEX3JZgs2e8IJ+dNKCMkAR1FL1eUHOHkhMg4fPow5eXlYsOCRmDnmL7fg+usjC/67UfyyZUsRaGpSov0qLgdEdDJxfXbgQJURtgAX1xh8gUWlaDVp0mTlFgDdtWsn3n//fXZehAQCATxw//343u23ob6+PmaOe8qUKVi3fgN69uyJiooKbNmizgxdTmYgRYW0/UnIAW5fVZUXEntYV4pGBYWFyrV50aJF7LgOsGbNGkyaOAHl5eUxc8y5ubnYtHkLrrvuOqUmM6i4JR6RkDKk5zVa+sAPb6NS1FFxE+xjx47hybVr2Xkd5MMPP8ToUSPx2muvxcwxd+3aFcUlSzDkuiEoLf1CmXbnzy3ggCWlmEKE9wocAEghXmBpKdoUFRYp1+Ynn+TOCx3t4MGDyJs9C0uXLomZYxZC4H/+5zY4nS5l2jx58mSkpqZywJIqSr1e776wB7hAIPAsuB4cRZG0tDRMmDhRuXaXFHPjeitobGzEj+68E3f95MdoUuTh/nBITExUpq2dOnXCTO6PSsqQz4b6yhYFuMrKSp8AdrLAFC1mz85TbqmBjz/ehffee4+dZyHFxcWYMX0aKisrWQwLKpo3D0IIFoIsT0jRPgEOAMwWpEMiS79RhEDenDzl2s3JC9b05ptvYvSokQzXFpSdfQ4GDRrMQpDVmVLTnm+3ACdbkA6JrGzosGE455xeSrX52LFjWLtmDTvPorxeL6ZMnoSVK1awGBbDJUXI8hcVgB2GYVS1W4DTNO1FAA0sNalOxckL69Zx5wWra2howA9+cAfu+smPEQgEWBCLuOGGG+DxeFgIsnKEa9EFshYHOMMwjkngNRaaVObxeDDkuuuUa3cxJy8o1VeFBXNx9OhRFsMCbDYb8vK4PypZOL5J2b4B7gT5DEtNKissKoLNZlOqzR9/vAvvvfsuO08hL7zwAkaPHoXdu3ezGBaQP3cu4uPjWQiyorrE5OQWXRxrVYDTNLmJtSZVxcfHY8YM9ZYVUGkFfPrKvtJSTBg/Dk899RSL0cG6d++O0aPHsBBkQWLrnj17WvR4WqsCXHl5xfsA9rHgpKKJkyYhPT1dqTbX19dz8oLKX63r6nDLzTfhgfvvh2maLEgH4mQGsmZ+Mze29Ee01v8x8CocKUnVnReqq6vZeQqTUmLBgkdQVFSIGvZlhxkwYAD69LmQhSBLnR40LW5zxAKcZmIja06queiii9D3ssuUazcnL0SPbVu3YsyY0fjss89YjA5SWFjIIpCV7CgrKyuPWICzJyY+B6COdSeVzL/xRuXa/PHHu/DuO++w86LI3r17MX7cWDzzzNMsRgeYMnUqUrg/KlmFQKsekG11gCstLa2HxDZWnlSRmpqKCRPU2/eUV9+iU01NDebPm4c/PvQQpOQW05HUuXNnTJs6jYUgS5BStOqOptamPyoEp1WRMmbn5SEpKUmpNnPyQrSfuCUeeugP+J9bb8Xx48dZkAgqLCri/qjU8QS8Xq93R8QDXHxT0wYAnFJF1n+PCIH8/LnKtXvduie5EGwMWL9+HSaMH4/9+/ezGBHSu3dvXD1wIAtBHfvZJOUGAK26BN+mALevqsoLSO7KQJZ33XXXoVevXsq1m7dPY8euXTsxZvQovPLKyyxGhKg4I52iixRyVWt/VmvrHxfQVrMLyOpUXPtp98cf450dO9h5MeTw4cOYk5eHBQseYTEiYOSoUXA6nSwEdVR8O5KWlvFihwU4aNpKtPLyH1EkuN1uDB06TLl28+pbbAoEAnjg/vvxvdtvQ319PQvSjux2O+bMyWchqIPym1i7c+fOxg4LcOXl5WUCeJs9QVZVUFio3L6n9fX1WLOGF7dj2Zo1azBp4gSUl5ezGO0oPz8f9rg4FoIiTgBtOslr4WiEFOAnDVlSXFwcZs2arVy7169bx8kLhA8//BDjx43jrfR2lOlwYNSoUSwERVpNXGJim5ZiC0uA07QgAxxZ0oQJE5Tb9xTg7VP6it/vw9SpU7B06RIWo51wMgNFnlxfWlrapmckwhLgysoq9wDifXYIWY2Kkxc+++wz7NjBpxLoK42NjfjRnXfirp/8GIGmJhYkzK4eOBAXXHABC0GRi29hmACqha01Qi5ll5CV5Obmol+/K5Rr96KFC9l5dFrFxcWYPn0aKisrWYwwy587l0WgSKlOSEjY3NZfEr4AB20JuKgvWUjRvHnKtbm+vh6rV69i59EZvfnmmxg9aiTee+89FiOMpk+fgZSUFBaCIkCsbOvt07AGOMMwDgDYzo4hK0hNTcWkSZOVa/eG9es5eYGa5fV6MWXyJKxauZLFCJPk5GRMnjKFhaD2j2+aGZY7llpYGyXB26hkCTNnzkSnTp2UazcnL1CoGhoacMcd38e9v/wlgsEgCxIG8+bN5/6o1M7pDd7ycv8L1gtwdvtyAI3sIerQ94cQmFtQqFy7P/vsM7z99lvsQGqRRx/9Nwrm5vPKbRicd955GDBgAAtB7UZKuQxAWL5xhTXAlZWVHYLAM+wi6kiDB1+Lc889V7l2L160iJ1HrfLCCy9gzOjR+OSTT1iMNiooLGQRqB0DnAjbnUqtHZrHxYqoQ6m4dAgnL1BblZZ+gfHjxmLTpk0sRhuMHTMWDgf3R6X2ID7z+Xxhu80S9gAXH5+0FpBH2FHUEXRdx/Dhw5Vr98YNG3DkCN821DZ1dXW4+abv4IH774dpclGA1rDHxWF23mwWgsJOwnwinL8v7AGutLS0XkIsY1dRR5g7twB2u125dhcXL2bnUXg+JKTEggWPoKioEDXV1SxIKxQUFHB/VAo3UwhbWE/0Wnu00ibxOPuKIi0uLg6z8/KUa/eJyQvceYHCa9vWrRg7dgz27NnDYrSQw+HECAWv5JOlPXNyuTVrB7gyn+9NSHzA/qJIGjt2HDIyMpRrd/HixZBSsgMp7D7//HOMGzsGzz7LuWUtpeKztGRdoh0ubGnt1liAU+qIJ9xmNDQ0YNUqLsZK7aempgY3zp+PBQse4ReFFhg0aDBycnJYCAqHQ0nJyeuUCXABKRdDgLsuU0Scf/756N+/v3Lt3sDJCxQBwWAQD9x/P/7n1ltx/PhxFiQEJ9aTLGAhqO0kSvbs2dOgTIDz+/0VkPIp9hxFwrz5NyrZ7hJOXqAIWr9+HSaMH48DBw6wGCGYOUPNHV3IYjTtiXb5te3ZZlOKf7HnqL0lJydj8mT19j3ds2cP3nqLOy9QZO3atRNjRo/C9ldeYTGakZKaquS5haxDAG8ZhvGOcgHO5/NtgQSnQFH7fkueOQvJycnKtbt48SI+k0Qd4tChQ8jLm40FCx5hMZpRNG8ei0CtJoX8R3v9bq292w5NPsYupPY0Jz9fuTY3NjZi9erV7DzqMIFAAA/cfz++/73bUV9fz4KcwYUX5uKKK65kIajlBI4Gg1iuaoADYHsUQAN7ktrDoEGDcf755yvX7g0bNuDQoUPsQOpwq1evxozp01Hh97MYZ8AlRahVpFjo9/vrlA1whmFUAWINe5Lag6obT3PyAlnJjh1vY9SoUXhnxw4W4zTGjx+v5BqT1LGCpvnv9vz9WiQOQgL/YFdSuDkcToy84Qbl2r1nzx68+eab7ECyFL/fh6lTp2Dp0iUsxini4uIwaxb3R6UWecnv93+kfIDzer0vAdjJ/qRwmjt3rpL7FRYXc+cFsqbGxkb86M47cddPfoxAE5fx/Mb5pqAANpuNhaDQtOPkhYgGOACQEH9lj1K42BXd97SxsRFrOHmBLP8loxgzZkxHZWUli3GS2+3GsGHcH5VCCjxGWlp6u5/oIxbgbDbbIgAH2bMUDmNGj4HT6VSu3Rs3bsTBg3wbkPW98cYbGD1qJN5//30W4yROZqCQ8puQC3bu3NkYNQGurKzsuAAX9qXYPpFy8gKpxOv1YvKkiVi1kvv1AsCQIUPgdrtZCDqb40LYIpJ1tEgelWZveoT7o1JbnXfeeRgwYIBy7f7888/xxhtvsANJKQ0NDbjjju/j3l/+EsFgMKZrIYTAmDFjOCjozGMEcvGJ1TeiLMAdOFBlwAQfAKI2KSqaByGEcu3m5AVS2aOP/htFhQWorq6O6TqMnzCBg4HOHOBsckHkwmKEuVyuKwQkN4CkVklOTsbbO95BSkqKUu1uampCv8sv4/NvpLzs7HPwn8cfV3IB7XAIBoO45OKLcOTIEQ4GOoV8xvD6R0bqr2mRPjyv1/s2BF5nR1NrTJs+XbnwBgAbN25geKOoUFr6BcaPG4vNmzfH5PHbbDZcc801HAj07UAlxV8i+vc6JKNK8Xt2NbXG3LkFSra7pKSEnUdRo66uDjff9B38+U9/isnHAgZcdRUHAX2TwIdlPl9Ev9V0SIDzer1rAexij1NLXD1wIC644ALl2v3555/j9ddeYwdSVDFNE7///YMoKipETYw9F5ebexEHAH2DlOJ3ACL6bUbrqGOFkA+xy6klCgsU3fe0pJiTFyhqbX32WUyaNBH7Sktj5pjPO+88djx93QHd610R6T/aUQEOLsO/GMB+9juFItPhwOjRo5Vrd1NTE9fQoqi3e/dujBkzGi+++GJMHG9aWhrsdjs7nk4QeHAHIr9EWocFuB1Ak5B4mD1PoZgzZ46S+55u2vQUJy9QTDhy5Ajm5s/BP//xj6g/ViEE4uPj2ekEAAeDQfl4R/xhrSOPOiDlP8DttagZdrsd+flzlWz74sXceYFiRzAYxK9//Sv8z6234vjx41F7nKZpRvXxUQvCvMRf/H5/XcwFOL/fXweBv3EI0NmMHDlSyX1P9+7dy8kLFJPWrXsSUyZPgmEYUXl8NTU1fK6VAKBG2O0LOuqPax199Jpm/zOAao4DOpOionlKtpuTFyiWffDBBxh5wwhsf+WVqDu20hiasEFnJiAeKSsrOxSzAa6srOyQgHiEQ4FOp3fv3rh64EDl2t3Y2IiVK1awAymmHTp0CHlz8rBo4cKoOq7PP/+cnUt1QSn/1JEN0CxRBk37I4Aajgc6VWFRkZL7nm7evImTF4gABJqa8LOf/RTf/97taGhoiIpjemfHDnZsrJN4xOfzVcZ8gCsvLz8IiAUcEfR1nTt3xrSp05Rse3FxMTuQ6GtWr16N6dOmocLvV/5YXn75JXZobKsLSvnHjm6EZpVqCE37A3gVjr5m8pQpSElNVa7dX3yxF6+9+io7kOgUO3a8jdGjR+G9d99V9hj27t2LPXv2sDNjmcQCv99fwQB3Unl5+UFI/J0jg75UVFSkZLtLSko4eYHoDHw+HyZPnoRly5Yq2f4Vy5ezE2NbXVBaYycpzUpVMQFehSMAQP/+/dGnz4XKtbupqYmTF4ia0djYiDv/939x7y9/iUAgoEy76+vrsXz5MnZgLLPI1TfLBTifz1cJgT9yhFDRPDWXDtm8eROqqqrYgUQhePTRf2PG9GnKvGcWL1qEiooKdlysEjgqbLYHrdIczWr1aWoK/gEA3yExLCMjA2PGjFWy7SXFJexAohZ44403MH7cWOzatdPS7Tx8+DD++lfu/hjT+U2K35+YdMkAd1qVlZW1AuJ3HCqxa05+PuIU3Pd0X2kptm9/hR1I1EL79+/HuLFjsWrVKsu28b777uXSQLGtsqGpyVIJXrNileISEv4GYD/HS+yx2WyYPTtPybYXF3PnBaLWamhowA/u+D4euP9+BINBS7Vt3bonsWrlSnZSLBPyN1VVVZZ6Rt+SAa60tLQeQv6aIyb2jBgxAh6PR7l2NzU1YcUKzk4jagspJRYseARFRYWorrbGDou7du3Ej+68k50T2/Z16pTyL6s1SrNqtQzDvxDAJxw3sUXVyQtbNm/m5AWiMHlu2zYMHzYUO3a83aHt+OKLvZgzZw6OHTvGTolhQuK+PXv2WG4bEc3CNQtAaD/l0Ikd5557LgYNGqxk20tKOHmBKJzKy8sxdcoU/Ptf/+qQRxM++ugjTJ0yNSp2jqA2xbf3y32+xVZsmZUDHAzDeBIS2ziAYsPcgkIl9z3dV1qKV155mR1IFGZNTU247757Ma+oCIcPH47Y3924YQMmT5oIv9/HToj5/Bb8MYCgFZumWb54mvZjACZHUXTr1KkTZs6cqWTbufMCUft69tlnMGL4MDz99JZ2/Ts11dX43x/+ELfccjNvmxIgsNEwKp61bvMU4HY5FkuIfI6m6DV69Gj84pf3KtduKU1MmjgRlZWV7ESiCLjhhpG45+c/R05OTth+ZyAQwNKlS/GH3z/IZ1npS0FT4lKfz2fZBQqVCHAej8dtBgOfAujEMUVEFNtsNhsmT56Mm26+BRdddFGrf8+RI0ewYvlyPPbYoygrK2Nh6evpaIFh+G63dhMV4Xa57peQd3NUERHRly699FKMHTcO1113Pfr06QNNO/OTQaZpYvfuj/HGG29g29atePmVVxBoamIR6VQ1gaDZu6KiwtIzWJQJcOnp6SnxcfZPATg5toiI6FRJSUk499xz0aNHD3Tq1AlJSUmoqanFsWPHsH//PpSWlqKhoYGFouaS0V2G4XvQ+s1UiNvpLJQCT3B0ERERUdhJ7OmUnHyRFdd9UzrAARC6y/kigMEcZURERBROmsTYMp9vkxJtVS4bC+0OWHRNFiIiIlKVWKdKeAMAm2rlramp8SWndNYFxBUcbERERBQGDZotOLm6+tghVRqsqVhlmy3ubgBcrIeIiIjaTuDBsrLKz5TKQirWubq6+nhKcnIdBMZy1BEREVEb7IfQZtfU1Ci1poxQuOCarju3Q+Iqjj0iIiJqXRKSkwzDv065EKRwyU1NM2+BAFdhJCIiolaQa1UMb4Cit1C/VF1d509O7pwmIK7mICQiIqIWqBGafVxNTU21io3XVK++ELafAyjlOCQiIqJQSYhflpeXK7sJroiGTvA4nWNMgac4HImIiCiE+PO+4fVeASCg6hFo0dANJxbek2s5IImIiKgZpmaat6gc3qImwAGAZov7HgSOclwSERHRmUjIv5T5/W+ofhy2aOmQ6urqmpSUzlWAmMDhSURERKfxRSBgzjh27FgjA5yF1NTUvZuSknwVgByOUSIiIvoaKTQ53eer+CQaDkaLts6RELcAqOE4JSIiov8S+Ft5uX9btByOLdr6p7a29mhKcvJRbrNFREREJ+1rbApMjYZbp1Eb4ACgprb27ZSUlGsA9OKYJSIiim0SYlZFRcWuaDomLVr7yhYMfhdAHYctERFRLBOPeb3ep6PtqGzR2l3VdXWHk1NSDgpgHAcvERFRTPqivqFx8vHjxxsY4BRSW1u7IyU1+QoA53EMExERxRTTlJhSWVn5aTQenBbtvRcMyhsB+DmOiYiIYol40OfzvRitRxf1Ac7v91dAyFs4kImIiGKFfC+tW7d7o/kIbbHQjTU1dZ+kpCafA6AvBzUREVFUa9Bscuznn5ca0XyQWqz0ZuLxhjsAlHJcExERRS8hcU9ZWcUHUX+csdSpHqezv6nhFUjEcYgTERFFnacNr28MADPaD9QWS71aXVtbnpqcIgEM5RgnIiKKKhVNgeCoY8eOxcR2mrZY692a2tpXUpKTB0FwlwYiIqIoIYXELF9FxbuxcsBaDHayGTDNOeDSIkRERFES3/D7cp/vqVg65FgMcKioqPCbEvMASI56IiIipb2d1r37L2LtoG2x2tu1tbV7UlM6dwXEVRz7REREChI4aguaN+wpLa2KtUPXYrnfnV7/TwC5ne8AIiIi5UgpxY0HKio+j8WDj+kAtwNogrDNBlDF9wEREZFCBP7o9XpXx+rha7He/4ZhHBCanAUgyHcDERGREuHt9bS07nfHcglsHAVATU3dFympyTYAQ1gNIiIiS6vQbPZhn3/++REGOEJNTe1LKSnJVwHIYTWIiIgsyYTQppaXl78X64XQOBa+GhSmxFwAZSwFERGR9QiIew3DeIaViLG9UEOh6/plkOYrADqxGkRERJaJLOsMr3cyuIYrAN5C/ZaamhpfckrKfgFMYTWIiIgsYXd9Q+PY48ePN7AUDHBnVFtb+0FqSkoaAC7yS0RE1LEOa7bgUL//oJel+ApvoZ4l3Oou51MARrIUREREHcLUJMaX+XybWIpv4iSGMwtqNnueAPayFERERB1A4G6GtzOVhs7K7Xb3lWbwFQCdWQ0iIqIIkVhm+Hx54KSF0+IVuGaUl5e/p0nMAHdqICIiipS3oWk3MrydGScxhKC6tvazlOTk4xAYwWoQERG1q32BoDnU5/MdYSkY4Nqsprb21eSUZKcArmA1iIiI2ufjVrOZI7zeCj5/3gzeQm0B3ev7PiS2sRJERERhF4SQc8rKKj5gKRjgwmoH0KTZ7TMAfMJqEBERhZGQPzQM/wYWIsRysQQt5/Fk5JhB26sAMlgNIiKiNseRhw2v9w7WgQGu3blcrisE5PMAklkNIiKiVpJYb/h8U8DVHlqEt1Bbyev1vq1JzAQQYDWIiIhaQeANaNpshreW4yzUNqiurf0sJbWzFxATWA0iIqIW+Viz2YeVl5dXsxQMcBFXU1P3Tkpqsg3AEFaDiIgoBAJeCXG9YRg+FoMBrgNDXO0LKcnJPSBwGatBRER0VtVCs40wDIMrOjDAWSDE1dY+lZKa3AdALqtBRER0Wsc1ifHlXu/rLEXbcBJD+ATT0rrnA3iapSAiIvr256SEyC/z+V5gKdqOy4iEma7rnSDls4AcyGoQEREBACQEbjQM3+MsRXjwClyYGYZxTGjaBAC7WA0iIiJAQNzJ8MYAZ3nl5eUHbfbACABfsBpERBTT4U3il+Ve759YiXCHYmo3PTIzzw3axIuAcLMaREQUgynjIcPw/YiFYIBTjseT0dsM2F6AgM5qEBFRzJD4q+Hz3QFAshgMcErSdf18SPMFAE5Wg4iIYiC8/cfw+b7D8MYApzyPw3GxqYnnAKSzGkREFMXJYqFh+OYDMFkMBrio4HZnXipN7TkA3VgNIiKKwlSx0jB83Jw+AjgLNYLKyyveNyVGAfIIq0FERFFFYjnDGwNc1PL5fG9B2IYCqGI1iIgoSsLbMsPny2d4ixzeQu0gJ2+nPgsgg9UgIiKFo8QSw+stYHiLLF6B6yDl5RXvQ2jXQsJgNYiISE3y34bXO5fhjQEuphiGsRuaNhSQ5awGEREpFd2Afxhe/y3gbFMGuBgNcZ9oNvN6AAdYDSIiUoLAH7xe363gOm8McLGsrKzyMwhtEIBPWQ0iIrI0id8Zhu/HLERHZ2iyDIfDkWnTxBYAl7EaRERktegmIO7kxvQMcHQavdLSutQnJmwEMIjVICIiiwhC4CbD8D3OUlgDb6FazN7Dh4926pw8HJBPshpERGQBDRJiBsObtfAKnEX1A+K8LtdCQM5mNYiIqINSwlHTxESfz/cii2EtNpbAmryAWVNbuyYlNRkArmNFiIgowuHNC2g3eL3e11kMBjhqoZqa2heSUzofERA3gFdMiYgoMnZBaNcbhvEJS8EAR61UW1v3RnJKykcCmAjAzooQEVG7kXgNmjbSMAwvi2FdnMSgCK/Xu0Zo5lAAB1kNIiJqp/S2VrPbhxmGUcVaWBtvySnG4XBcZNPEJgA9WA0iIgpfIJB/Lvf67wS3xlICr8Apxu/3fxTXFBgggLdYDSIiCoMghLyj3Ov/IcMbAxy1o31VVd64hMRrAbGE1SAiojaoEaacZBj+h1kKtXASg6KOHDkSqKmtXXtymZEh4O1wIiJqmS9MiWFev387S8EAR5H+6lRT+0JKaudPADEOnKFKREShEHg9EDRH+P3+L1gMNfEWahQwDP8yeWKduEpWg4iIzk6WxMcnXl9RUeFnLVTO4BQ13G63B2ZwjQSuZDWIiOgUQQjcYxi+37EU6uMt1ChSU1NT3T09fXHQDHgA9GVFiIjopEMQ5mTD8C9iKaIDr8BFKZfLdbOAXAA+F0dEFNskPghKOdnv9+9lMRjgSAFOp3OIJrASQAarQUQUk5/yK4NBOc/v99exGAxwpJAemZnnBm1iFSD6shpERDEjAIGfG4bvQQCS5Yg+fAYuylXX1R3unp6xMBgMpgIYwIoQEUW9Sgg5xTD8i1mK6MUrcDHE5XLNFZD/ANCJ1SAiikov2eyB2QcOVBksBQMcRVeI6yMgVwG4kNUgIooaEhB/dXm9P9oBNLEcDHAUhbp165aalBD/HwlMZTWIiJR3GEIWGYZ/PUvBAEcxwO10FkiBv4O3VImIlCSBN01TzuYSIQxwFGOcTueFGrAUApewGkREKmU33jKNZZyFGuNqa2sru6enP8FZqkREyvBLiGler/cRL2CyHLGJV+Dov1wu12QB+SiAbqwGEZEVyWcCQVnAjeiJAY6+wel0ZmsCCwFcy2oQEVnGMUj8xPD5/gYuzEsMcHSmceFyOb4vIH4HIIHlICLq0A/qt6TQCgzD2M1q0Jc0loBOQ3q9/r+YEv0AvMtyEBF1iAAkfte1W/dBDG90mmBPdGb9gDiv7rwHEj8HJ70QEUXKFzhx1e0VloIY4KjVXC7XYCHk45A4l9UgImo3EgJ/A7SfGIZxjOUgBjhqM4/Hk2QGAvdC4Efg1TgionB/IO+FKW8q9/ufYzWIAY7Czu3OvFqa2mMA+rAaRERtZgrIRxsD5p2VlZW1LAeFgldRqMVqaurKuqenPxY0A0EIXMNxRETUShJ7pBBTDK9vwbFjxxpZEAoVr8BRmzidzis14FFuxUVE1KJP3yYhxe/jEhJ+U1paWs+CEAMcdQS7y+W4TUD8H4BkloOI6Kwfva8GTfMWv9//EWtBDHDU4Twej1sGAw9LYAqrQUR0KnlEAvd5vf6/gnuYEgMcWY2uO8ZDigUAerAaREQABDZqmv27ZWVl5SwGMcCRZfVKS+tSn5DwfxC4FZzkQESx6sQkhdu9Xu/TLAYxwJEy3O7MS6Wp/RXAYFaDiGLIMQj8Pj4+8becpEAMcKSsk7dVHwGQxWoQUZR/sm6UUtzu9Xr3sRjEAEdREOL0ToD5E0j8FEACK0JEUWY3hHaHYRjPsBTEAEdRx+12nydl8CFIjGM1iCgKVEHgV4bh+weAAMtBDHAU3UHO4RgqNfEHAJexGkSk4CdoE6T4e3xCwr2lpaVHWBBigKNYormdzqlS4PcAerIcRKTIp+dGW8D8wYGKis9ZDGKAo5h18vm470HiHgAprAgRWfRD8y0T4k6v1/syq0EMcEQn9UxPdzXF238B4DuQiGNFiMgidguJX5T7fKsBSJaDGOCITsPlcvXUYN4tIW4EFwImoo5TJiF+4/V6/wNOUCAGOKLQOJ3OCzUN90FiGscrEUXQwZML8f6FC/ESAxxRK+l65kBA+w0khrIaRNR+5BFI8afGQOBPVVVVNawHMcARhSXI6dcA5k+5hhwRhVkNJP5mj4//3f79+w+zHMQAR9QuQS5zIKD9jEGOiNqoGhJ/j09M/C3XciMGOKJIBjkp7gXEDawGEbXAQQHxp+MNDX89dOhQNctBDHBEHcDtdveFGfxfCeSBs1aJ6Mx8EPhn4vGGP+09fPgoy0EMcEQW4HA4etk07Q5A3gQgiRUhopOfdp9LKf+akJD0T84qJQY4IovKzMx02O3arZDyDkB0ZUWIYtY7QuIv5T5fCYAgy0EMcEQKyM7O7tpYX/8dCNwO7rVKFCuCAlhnQvyZW14RAxyR2jRdd4yF1L4PyOEsB1FUqhGQS6Ww/dEwjE9YDmKAI4oiuq5fJmTwuxKiAEAiK0Kk/AfZXinwr/j4xH9yKRBigCOKcj16pOvBJvt3IHATAA8rQqQUEwKbRVD+o9zv3wTAZEmIAY4otmi67hgKiJshMQVchoTIyvyQeCIo5T/9fv8XLAcxwBERPB6P2zQDN0HiVgCZrAiRZewQEg87fb6lO4AmloMY4IjoW3Jzc+OPHDw4wRSYJ4CR4FU5og4gywW0hcIWeKKsrPIz1oOIAY4oZD3T012NcbYZQogbIXExK0LUrhog8Kwwsajc51sLIMCSEDHAEbWJruvXQMp5EHIaJLqwIkRhswNCLtS0uJKysrJDLAcRAxxR2OXk5CQcO1Zzg5BiugSmAOjMqhC12D5ILIOmPWEYxm6Wg4gBjihieqWldWlISJgoNUyHxCgAdlaF6IwOCsjVUtgWG4axHYBkSYgY4Ig6VEZGhjMuzjZNSkwVwGBw8gMRAPggsFYE5apyv/9FcE9SIgY4Iqtyu93dEQyOPXll7gYA8awKxZAyAblJCmw0DP9mcDICEQMckWo8Hk83GQhMkMBkCAwH0IlVoSj0KQTWaUG5uszvfxO8PUrEAEcULbKzsxMbG48PgtTGA3ISgCxWhRQVBOTrEGKDaWKDz+fbxZIQMcARxQS3O/NS0xRjhRTjINAffG6OrK1CAls0iY0JDQ3P7D18+ChLQsQARxTTMjIykuPitKtgiuEnb7X2Y1Wog9UD4hUIuVVKsdXr9b4LbhxPxABHRGfmcDh6aZo2QoMcIYHrAXRjVaidmYD8AEJsBbRnNU17uays7DjLQsQAR0RtC3TDNchBEhgCPj9HbRcE8ImAfAVSbIXN9lx5eflBloWIAY6I2omu6+dLKa/VIAdLiashkMOqUDPqBPA2ILabwEuBQGB7ZWVlLctCxABHRB2kV1pal/qk+CsBMQhAP0hcDaA7KxPTZ3kvgFeklNuFsO1IS0t7c+fOnY0sDBEDHBFZl+Z0OvvYgCshRF8JeRkELoVEF5Ym6piA+BxCvgvId6XU3o2Li3tz//79h1kaIgY4IoqC932PzMxepqZdBiEuMyH7CiAXQE+WRhnHAHwMifeh4V1Ae6+xsfH9qqqqGpaGiAGOiGJITk5OQm1tbY4NuFBqyAVwISRyAVwAQGOFOkQjgD0Q2AlglzCxMwjs8vl8H4NLeRAxwBERnS3Y1dTUuG029JJS63Xyat2FArKXPHHVjgsPt02DAMolxF4AuySwUwhzbzCIvX6/fx+48TsRMcARUbjD3fHjx3sCgR4Iih4S6AkhegDSA6AHTgS8zjFcIhMSPmjYLyXKAHkAwD5AOyClPGCa5v6Kigo/RxIRMcARkaWkp6enJCQkuKSUGQAyhGm6JJAJDRlCwiUF0iDRFUAaILsCoquFD6cBwGEARyBwREgcNoFKIVAhpPCaQCWASk0LejXNrDxwoKoCQICjgIgY4Igo6mVlZaU1NDSk2Wy2rlLKZCHMeCm1LkKY9hP/X8bjxJW9TjCR8PVzmhDyjAFQStGAExMAvvp3Qh4VUgSkEEc1KRsB1AE4JjXZoJmiOgDUJgQCh4OJiUe4IwEREREREREREREREREREREREREREREREREREREREREREREREREREREREREREREREREREREREREREREREREREREREREREREREREREREREREREREREREREREREREREREREREREREREREREREREREREREREREREREREREREREREREREREREREREREREREREREREREREREREREREREREREREREREREREREREREREREREREREREREREREREREREREREREREREREREREREREREREREREREREREREREREREREREREREREREREREREREREREREREREREREREREREREREREREREREREREREREREREREREREREREREREREREREREREREREREREREREREREREREREREREREREREREREREREREREREREVE4iY5uQEZGhtNut08QUrqgYX98fOLa0tLSI+ya5um63kmY5hgJ5AKok0K84fV6XwEgWZ3o4vF4upmmeaEwzV6mkG4hhQtCdoMQ8ZCyC4SwQ6ILBOIhkQCgRgC1EqiHQDWAOgB1QgovpDwAmyw3Tc0QQuwzDOMYK0xEdGb9gLhyp7O3DThHAj0hRA8A6QKymxRIg0TqyVCVAKCTBOoBHD/xeSxOZhqzBtAOCqASUh4EcFBq8qBmCn+TlKV+v79CmQCn647vQYrf48QBf6kaQuYbhn8Dh8yZuR2OoVKIxRDQv/EfJLYlNjRM3Xv48FHLH4Pb7ZGm+Xizg1TKknKf74kY6l7N7XD0lzZcB1MMhMCVAJzt9+fkEQhxAMBuALuEiZ1BYJfb5/t0B9AUjQV2OBzn2Gzi0WYrI+VnXq//u9F07JmZmY44m+07ErgSQOfIXCqQhyFFk4BZIaUoF8C+ILDT7fN9Fq1jLLRzoGOYNLWfhlC/Zw3D9yA/+SJ6gaSHMM3rpRDXAvIynLhQktDOf/YYgFIIfAGgVJj4QmrmB6apvefz+SpPfbG9o4rjcrkmQ8qHT/OfUiHFKl3XLzUMYzeH0Wlrd4WEfApA4mki+bD6pIQ1OIwbAAStfBxSys6AHN7s6zS8FiMnjMsA8yYAk6SECzJSX7FEV0h0BXAxAEgBaAC8urNJl9gDifcBvKJJ+VKZ378TgKl6rePiZIoZFEND+IbbLZrGmMfpHGMKLJWQqZF9s5/4PxICECf+pwbA63LWu4DXhcTzwmZbX15e/l4snctNU3OJEM6BAMr5yReRiwrnyWBwFgRmQpoXSvHfwRspnQBcCIkLvzwXQ2rQBKA7nYYUeE+DeA9Sbi33+Z7vqACnCeB3Z/nv8UKa9wOYyiF1ug8V+dBpw9tXJ8uhLpfjV16v/+esljLfwn8NaQ60VsJGHIA+EOgDYJYpBHSX8xAkXhHAS43B4D8rKytr2YNqcDqduabAKgBJFmpWogCug8B10gz+Snc5d0PisfrGxn8dOnSomr1GEfryPAgw75JmcCxExz9adoYPfl0AuoQcAw1uAM9rHXQiGQnI3s18YZvocrl6cmh9a6ClAxjcfF+LnzmdztGsmIWvhng8bl13bpSm2ArIgYo0uxsEJkiB3yUkJATZi+rQgF9YLLydzgUQ+H1iQvwB3en8pa7rndhz1I6fp5frLscrkObLkBgHWDS8ncrE3pPv6Q45kdwawstsQsh5HGKnBDMhPCEOMk0TWKTreg9WzYLhzekcYwYDH0JirKKH8GlZWdlx9qRKJw+MUKi1qRD4FaS52+12DGPnUTjl5OQkuFyOP0KabwHiGtXaL4XomACn63oPCIwJ8eU39wPiONy+FrxN09aCl6dLaa7Kzc2NZ+Wsw+10FpgC6wCkKZwG3mNPKsUGNZ/n6yFN8YzL5fgNVLk6Qtb+8uzxuI/V1W4XED9EB13EavPZVwQ7JsBJGbz55MkkhBfDZbhc4znk2vKlG/0PHar6LSthDS6Xa6QUeAwdOIEoPANLMsApdypQliYgfu5yOZ8I+bOD6PTn355mIPACgH4qH0dTk+yQAGcXUsxv4VnnVg67tp65xQ9cLhcnhHSwnunpLgFzWTuHtyAgj7T/FzHxAXuUIpxAC3SX6x+sBLVGdnZ2VwE8C4Gcdvj1xwEcBnBAAHu//AcC3pP//jCAQJj+Vl1lZaUfkb4K4HY6J8tT1y1r/qNimNvtPq+8vPxTDsHWn/sE5OO6rn9kGMYnLEcHfWuKi3sIkF1b+eO1gHwf0HZIYJcQpqGZwi9tNsNms9Xt37+/Gt9eNsaWlZWVWl9fHy+E6CyESNI0zS1M0yk1qUNqLgmpC0gXIM4DkBFqYwKBwHvs0ahkAuK5MMf9RAF0lZBpgHC07XNHfkfXne8bhu8RdhW15DOwoaG+RAC92/A7GiTwGiC3a1LsCQJfaJr2hWEY5QhxyS6Px5MEoBuamroFhOgmhOgGIEMIqcNEDwi4AfQ4+U/KGb7IfIGTa5tENMBJDbe2YkkVcfK26484BtskBaa5wuPxXMWHzyNP1/XzIc1ZLfyxakisFlIWl/v9L6Ll6/oF9+/ff/iUf7fzTC/OyspKCzY0nA8hLpBCnC8gz5PA5QCyT3mpv7Ky0sdejc7vGYbX226THRwOR2dN0/oJYQ6E1GYB8tKWf5DgQV3Xn+WXUQqVy+XKE5BjWvyDAkcBLAHkGk2L297Wz86TP1+OENb1y87O7trQ0JAjhNkbpjgPQpwnTqze8d/1cSMW4HRdvwDSvK51yQ/zdV3/Jbf8aet3EFwSDDb9CcB3WYxIX9cwb2/B+kISAotMEz8+3erb7eVk2Hv95D9f/9DNtAP9pU1cCYn+gDjMDqXW8Pv9dQBeOvnPb93uzKulqd0LYGQLfk0SYD4EYBwrSs3xeDxJZiDwYAufAj0GiQcbmwJ/rKqqqumIdp/cUvTtk/+cVsQCnJDBWyREax+kTROmOQ3AIg7HtmY4cYvb6Xy13OdjLSNb+IkhvjIgJPLKvb6VFvrQrQCw8eQ/RGFTXl7xGoDRuu64EVL8CUByiF9xxrrdmVef/Hmis3x3bsqDEC15dOtdzRacUVZWucfqxxaRSQwejydJQhS05XdIjZMZwkUK/M3pdOayEpHhcrn64MQzDaEE7PvKfdYJb0SROCUZhv9RCHMkgLqQf0hqt7B0FMIHXkuywytNgeC1KoS3iAU40wzMQlvXIJK4Stf1yzkaw6KzJrAmPT09haWIwJtMyotCfKk/qXPnP7BiFIsMo+JVCC2/BZ8J07OzsxNZOToTt9vtwYnneENRptnsE1XaHjAiAU7KUJ65Elub/z3Bmzkkw+a8eLv9XyxDBAhxfmivw5Y9e/Y0sGAUuyHOeBIS60N8eaempuPXsGp05swQuAEhroEoJH5YVlZ2SKmLAxFIwH0F0L+Zl1VBiNkAas/++SbmdOvWLZXDMlzBArNcLhdDcTszIUPacUGY+JzVopinaXeF/gEtBrNgdOaTr+gb4is/Kff51ij3Vmn3BGyat4cQJJ4wDKMKEiuaeWVyYnx8PkdlODOc/AtvTbf3m0yG9GC2KQSX5qCYZxjGbgh8GOK3o/NZMTrzB5zoE1JOgVwJwGSA+5peaWldANns2lemiccBQJOy+Vt6ArdxVIYk1Pv4iYC54kRfUbt8CYQI6cQghExjtYgAIcWGED/BzmG16CzRzB1iFHpFzYsD7ag+Kb4AQOdmXvayz+fbBQBlfv8bAN5t5vUX6rrO5x6aD7p/ArArtDGOc+sTEhaBm0W305fAEMO0CQ+rRQRAys9CPHfxkRo6m9DufpjmZyoeXLsGOCHFzc2/Bo+e8oZ8rPk3bZBLijSvDkKbAiC0RQgFJrhcrjtYtnb5NDoQah8wRBO16HECzkKls0kK5UV2u/0oA9zXOJ3OIRK4qJkPrKNS01Z9493Y0FCMZtcCEtMdDkcmx+bZGYbxCYQMea0kIeSDvLrZLnaF+Lqeuq6PYLko1tmkrA/xpUdYLTqLUB8lSlLx4LR2/MWhXCUrPnV7rL2HDx8NYTJDvM0mijg2Qwlx/qWA/HdIL5aIgzSX6rqezsqFT1OT+ToEmkLrA/PRrKwsPgtHMc3UpCvEr51VrBadRUjb/knZlMUAd5LT6cyAwKQQ/vxpb5eKECYzCIlbEKF17FQXn5D0fQDvhPjyHkKai1jb8KmsrKyFxLZQ69/U1Fjs8XiSWDmK3QQnQnoeVEJ+yGLRWZLC7pBeZWrnMcB9WQwhbwKQ0MzL3jYM47QTFsr9/tcB+d7Z37jo5XK5eLspBKWlpfWaLTgTAiHd55fAaJfL8VNWLozviVCe7fzytcAYMxjc6vF4urFyFJtvGAwL6QNM4nUWi8583pU7QhxvMxjgTv5OAXFT8yFB/LuZFPhY8zXn/qihOrG3myw4kc9CGc/iN7ruGM7KhcfJRSJ3hv4TcqAMBt5yuVzXsnoUS7KystIgMDSElzZKTXueFaMzstlCuvMhgRE9eqTrqh1e2AOc2+kcDSC7mZfVNTQ0LDvbCxKPNywGcKyZso9zuVw9OUpDYxj+9QLi4ZDHhhTFKg5qizIh5A9CDdAnTyq9BOTzutP5sMPh6MwSUixoamr4LiTiQniHbDIMg8/A0Zm/OJeXvxfiF2d7sMn+UMwHOKmFcFVMYvmhQ4eqz/aSvYcPH4VodjKDTQg5n8M0dE6v98eA3B7iyx1mwL4EgI2VC0uA3gqJBS1+jwp8z6aJXS6XKx98NpGimNvt9giIu0N6sbD9nRWj5uOGeDS08YRZuu6YELMBTtf1LEiMarZOMrRZkUKYoWy2flM/hPJtjQBgB9AEYZsNoCq0wY8hLpfjV6xceLh8vv+VwAut+NEsAblYdznf9Did17GSFG1yc3PjpWn+B6EtvvqyYRjPsGrUnISEhH8Asjy0tCeWqHR+DWuAE1J+F81crRHARycmKTSvvLziteYmM0DCZbhcEzhMQ2cYxgFTogAh7v0mIO5W7ZuJlQN0Un3DJAi80cpf0c8UeN7lcj7lcTr7s6IUJbTDBw8uBGQoE9OCmil/zJJRKEpLS+shxC9CfHlnU2C9Ks9/hy3A5ebmxks0fzvThHy0Rb9Y4D8hBEdOZmghn8+3WUD8NuRekOJxp9OZzcq13d7Dh48mHm8YKYDNrf6yBIwxBd5wu5ybPA7HAFaVVOVwODJ13bkeArNCHPz3n9x2kSjEixa+xwWwJsSXp0CKZ9wuxz8zMjKSrXxcYQtwhw9XTQHgaOZlDULYSlryexOPNy5Cc5MZBIbqun4+h2nLlHu9vwDE1hBf3k0ILM/NzY1n5cIT4sq9vvE4EaJla3+PBEabmnjd7XJu0vXMgawsqSI3Nzde1x3zbZr4EBJjQxzvL7gM3/+xetRSTUHzfwCUhvodWULcHGe3fazrzp9YdXH1sAU4IcV3Q3jV6pbOGjo5mWFls39emjdziLaYGQgG8yFhhPbFF/0PHar6LcsWNkHD6/2ZkJiF0Ld8OWOQg9S2u13OF1wu1yiWlqx60UDX9ctdLsfdhw9V7YUUjwHIDHGQf5BU3zBpB0Lc1YToayoqKvwQ2mgAB1vwYx5I/C7Q1HhAdznW6Lrj+263u296enqKFY7JHo5f4nK5+kjIZterErKFt0+/es//GzALzx4u5Hxd139x6tZc1PygdjqdeRqwDSHMNhUQP3C5XNu9Xu9qVi88yn2+FT16pL8SDNgWAGJSG4PcEAE5RHc6PxDAQ+U+3xIAAVaZQv1M0J3OcH9J6wQgAxockLgU0uwmIFr6O94OmOa4vYcPH2UXUWsZhrFb1/UbIM2nADhb8KOdATEZEpOlDCI+zg7d5WwAZJWAaGhruyREDaR8GZr2oGEYByIa4ISUt6KZd6QA9pb7fC+0sujb3S7nRxK46Cx/oaswzekAFnKYtozP53vR7XLdKyFDuTUhBOTjuq5/ZBjGJ6xeeBw4UGUAmOxyueYIyD8ByGjbmxKXSGCh7nL9HML8XVpa+uKdO3c2stLUDBsE7mqX3yxb/XPrg1LmVVRU1LF7KAwh7h2HwzHQpolNAC5ow69KAIRbhuvNIXAppJnndmcOLS+veD+Un2rzLVRd1ztBIL/Z5gn8C2151kc0v/RISGvQ0WmVe70PAGJdiC9PgWmu4H6d4ef1eksgtAtxYu2iYBhODL0hxaOHDx3co+uO77PPSCHHJeQPDJ9vkt/vZ3ijsPH7/V80NgX6Q+JxizWtmzRtIV+ECsMzcME8AM094BeIawwsastfiY9Pan4yg8QAXdcv5/Bs3Se9PS5uHkJ9yFPgkmCw6U8sW7t8Q6wyvN6bILSLTj7/GY4veT0gxV/MYGCfrjvvy87O7spKk9U/ZzUp7A6HI4OloHCrqqqq6ZScfGsLLlxE6qP4UpfL1ScyAS6UyQsSm/ZVVXnb8mdKS0uPSGBVs7lCBm/h0Gyd/fv3H9YkZgII6VabgLjF7XQWsHLtFuR2G4ZvBoR2LSReC9OvzYDEvY0N9Xt13fmrXmlpXVhpsqhsKfAHm02U6U7nMo8nI4cloXDIyclJ0HXH947V1e4B5ESrtc8mpSOU17UpwJ1cSLRfCJ/0N4Tjg14IrfnbqBB5/FBqvTKf700JEfIzMFLgb06n80JWrl2D3CuGz3cNhJwI4O0w/do0SPyyPjHhc7fL9b/Z2dmJrDRZkkQcBGaaQdtOl8v5EM/v1Kbc4nBcfKy29k1I8TAAjxXbaGra5+0e4EzguyG+NFEKLHS7HP9EGyZOGIbxigA+auZlyfUJCfnYfB6SAAAUI0lEQVQcpq3n9Xr/LIBQZ5l21gTWWGVadTR/jBmGf73h9V0JoQ2GwPNh+r3dJeRDjQ31n7lcrpvBfW/JuuIF8L/1iQkfuFyuK1gOaildd95uauItCFxi1TYKYHOoM1FbHeCys7O7QmBmy75IiZvdLudWh8OR2dq/G9JODgK3nagDtVZDU2AegFBnmZ4fb7f/i1WLDMMwXjEM31AIOQLAS+H6Yiog/6m7nO+7nc7rWWWysCwB+aKuO2azFNSC8PYrSPwVQIKFm7lbswe+E+qLW301rKGhoUicWN+nZZcRgCE2TbztcrmmeL3eFt8OSkhIWtjYUP8Azv63+7hcrkFer/dlDtvWqaqqqvF4MmeYQe11AM3PXBSY5XK5nvd6vQxyEQty/q0AtrpcrmsF8PMQ95FsTq4U2KbrzoVC2H5UXl5+kJWOKRLAO+38J2yASAeQDqC1t+47QYpiXXfAMPxL2W10Nm6X6wEp5c/C8N6oAHAEAkcgRU3YGijkIZh4SbPb/3PggO94uwc4AXlTG5rbQ0C+7HY6byn3+Vo0O7W0tPSI2+VcLYG5Z28fvguAAa4NysoqPnC5XD8QkP8McUz8Rdf1tw3DeIfVixyv1/sSgBvcbndfKYN3Q2Ia2nYFWkCiSMrgRJfL9VOv1/tvhGcmLFlfo+H1Rez2ZLdu3VITE+0DYGrDITAOQEuep9UAsdDjdB4t8/k2sevotOHN6ZwmIX/aysy2XQJPCYG34uOT3i4tLT1ipWNr1S1Ut8MxtIVvtNNp9XNxJsS/Qyj8tLbcqqX/hoN/QYS8OHIiYK7gQ8Ydo7y8/D3D8M3QTHmpABaj7evIpQnIf+q6c5nD4ejMClO4HTp0qNowKp41fL67DK/vIgg5UQBvteCaSJypYYmu6z1YTTqVx5ORIwX+08IvtPUQeAhC62N4/YO8Xv//Mwz/VquFt1YHOGkT3w1XA1rzXNzJW6M7m3lZvM0m5nEIt10wKG8Lod5fdui59QkJi8BnEDtMmd//YbnXV2BKfBnkAm18k86wCfGqw+HoxepSO5KG4V9f7vUNgMBPQ/4CItEFpvk4zzl0KjNg+yOAkCfYCeBFCO0yw/D9yDCM3VY/vhYHuIyMDCeASSG8NOTNuU8+F/e62515aQuC36MhvOgWhGWx4tjm9/vrhGabAqAmxHfBBJfLdQcr17F8Pt/Ocq+vQGi2XAg8AdGGTcAFLrFp4k2XyzWYlaX2D3K+30mIsQAaQhyfw1wuVx5LR1/yOJ3XQWB8C76oPlju9V2nQnBrdYCLt9u/A4m45koRNOXVLdym4hxpaq+7nc7CUF6ckJDwBJrbmQE4x+Vy3cCh3Hbl5eWfQsibQ/68F/JBXdevYeWs0XeG4ZsXDMrzAVkCwGzlr+ouIDfpeuZAVpXam9frfRpCFiLE5y+1E8858SocAQBM0YJJCwK/Mny+u1Q7xpYGOJuEbHaKqwRe9Pv9Hxk+33wJcQtCv4WTKAWecLsc/+yHs4fE0tLSIwJyTbP9IiX3Rw0Tw/AvkyFOaIBEHKS5VNf1dFbOGvx+/xeG159vSlwCgY2t/DXJkNp6h8NxDitKETjnLIfA30I75eAil8s1klUjj8fjBsSwEMPb84bh+5WKx9miAKfrjrEAeoZQkUe/9i3qXxDaWACHQ/07EuJmn8v5bHPPxZlofmcGCIx1uVw9OaTDo3PnlDsA7Ajx5T2ENBeBt7Etxefz7TQM33hNYiyAL1rxK7rbNLGQVzsoQh9T90HgaEifxULyuWeCGQjMRmiLkh8LBuV3oOgs+5Z9sEoRwtUseUQIsfab36KMZzRbsD+AXaGHuP+uF3fGKe0nl09o7nfahJA3ckiHx549exokxFQAh0Lsx9Eul+OnrJz1lPl8m4KmvFgCf0TLZ6wO5j64FAmGYVQJKUK6CgeJofzCSACuDfHzaZXf79+r7FebUF948pZJCM+TaYsMw/jWs2llZZV7GpsCV0FifQva9+V6cWd8Lk5APBZCL93U3C1ZCp3X690HIYtC/dYiIH6j647hrJz1+P3+Oq/XdyeENgSAr2Xf53A3PywpEkxgTYgvTXe7My9mxWKcQP8QX6j0ItAhn3xtQoQ0o1Nowf+c6b9VVVXVGD7fFEj8rgVtPPtzcZq2EEB9M7/D6XM6J3JUh/NbsX+DhPxzyONMiuIePdJ1Vs6yVzm2C812JVq2Cv95LpeLE1UoEl8ad4T8BSOo9WXFYtfJ564doYwU3evdFvUBLjc3Nx4CzT9bIPBGeXnF+80VzfD5fgoh8wCEvGWEhLjZe5r14k5s9SOb3XhdauBkhrCfVP0/AfBKiC93mAH7EnCzdMsqLy8v02z2EZDYE/IXXSnHsnIUARKQn4f0Qi2kD2+KXiFOnJO+HWjD0kqqBLjDh6umAQhhoV3571D/sGH4l0JogwAcaEF7rz3dc3GmDGFnBomhTqfzQo7tsAoIzTYbQFWIZ+AhLpfjVyybdZWVlR0ygYlo/qr2iT4VGMCqUWQSnPCG+NIMVit2iWCwa0ivgzBUP9bQbqGGNHkBtY2NwRUt+eOGYbxjsweuksCbLfixbz0X5/P5XkQIEySEaH4JFGqZ8vLyMqHJWQjxIXgBcbeuOyawctbl8/l2QWJJiP3pZsUoQo6F+Dpu+xbLAS7EZ7OlaPV6mOoEuJNXrUJ4zkUuraqqqmlpAw4cqDI6d06+tgX7bQKneS5OSPwnhI6dp+t6Jw7xcIc4/zYJ+f9Cfn9J8bjT6cxm5Sx8ErSZj4b2Ssl1/ihSH8yh3Ro1Uc1qxa6AEKHlEImuUR/gNA23IYT1nkK6jXkGe/bsaTAMX5GE/AFasJzBN56Ls9meQLO3fURXYZozOMTDz+v13wuIZ0N8eTchsFwLBuNZOWuy2RJD3U6mKwA7K0btT4YW4LTQljii6GS324+G+NJs1VenOGuAy8jISIZEfghfjT70+XxvhSEE/EVCjAPkkRb82LU2TbwdDAZ7AaLZqeam4GSGdmIGgsG5EAjpORUB9Ddt4v+xbNa0f//+wwhtH0oJqH8rgqzN4XB0BkSfEIPeJ6xY7CorK/MCqAvhpQmGy3VJ1AY4u92eByA1hN/zr3A1yOv1bpHQBrZkJhyAHprACwJmbSjBweVy9eMwD7+Kigq/aWI2Qt067cROAGRBJx81SAihE6sZ4Ki92WwYGtp4BGwB+RErFtsXEwCEeAfBnBy1AU5A3hLC7zhut8eXhLNRXq/3Y81uHwCIrS34sU4SIqTN1gXMWzjG24fP53tRQv6SlVDeZaG9TPhYKmpvQorpIb50/4GKis9ZsdgmId8OLQuIwuzs7MSoC3Buh+MqAJc3XwCsOnm7JazKysoOGV7vqBYu+hvq6WBOVlZWGod5+/B6/b8FxDpWQuXvsObMEM+U77NY1J50Xb9AAnmhfSDLLawYCWELdRx4Guvrb4+6AGdqIS0dAvNrG9e3g6Dh8/1UQuQjxHWpQtQpEGicw2Hefl+A7HFx89C6jdKpg7ndbg8EQt0/+G1WjNrzsxgwf48QFwCXwraYJaPGxsZtCHWjAIHfeDyZSj4Ld9oAl5WVlSaAaSH8/Kder/fl9m6k1+stgTCHoYV7NTZz5eB/EMLsWmqd/fv3HzYlZgJoZDXUkZubGw8zWAwgpOV2NHvwSVaN2u3LhNP5c0iMC/HlHxuGsZ1VoxNLmsni/9/e2cbIVZVx/Pecmd0t260Ud7pz791pWW0xRVtEllpehBahWA2ixKQGP0ARA5SYIBjFRGhoeAkgn0gQDA1oFIRqJCQQiIIW5U1q5aUtJrRAaWfuyw60IC3d7s49jx9229DasLPb3enM7Pklm+yHmTvnufc5z/mfc895nio/PsWm5vGZXV2zm0LApQMD368qgCurqTJp3uEShn3Pm0z25HGc8R/v+/4ZztUnjjiO1yH6k0k/CPn+1UHg3d/tect6enqm12s7c7nctJ07dqxRWFTlV9YXi+UtztMdE9RvrlCh+sotojfWajxy1D+p5c5R+EMhzZp/BEHwlUYXcKLCyIcBhMHBNK3pcnWxWCy1tk05Q6pX1iOYwBXOzSdaeCd3gjw4me+Bot9DWa7CwwN7+8vdvrc2CLxrC/n8/LoZLLu7T2xtaVkP+q1RDJh3OA93jDeFQuGowPPuU/Ruqn9Lsj4Mk4fd3XPsI0mSjQrVaxTFR+3fgsC7I5fLTWsEG/8vAWcQ5M9G+dyItiqPlsvlmp9A27p1az9wURB4G1FuodpyYIe24jtdXV35vr6+xLn7xDFYqVzeks2cBMydbLZ3dXXlOfAwUFZhEcoia+TWIPAiVF9E5XmMeaG1tXX9sI/XZrDM5+dbw7Vq0+8yuoS8m8Iw+YPzbsd4MWfOnLbdu3dfbNPBlcioSrRVEHMZLp2N4yDS1P40m5HzQaZXrYmUH7e2ZJcHgXeXSObeUqlUPNJ2+L5/LNAL9iSD6ShF0Y8OKeBEZUV1a44TenhhROUVhvFt3Z63UQ0PoBw9xuu0ZrNyCXCrc/WJo1wu7yrk88uskRepcm9Vs9BizFL9pEmG4oNcgHABahnY2z8QBN7LovqCirwG5g1r7RtxHJfHq01BEMwV1W+o6HlWWczo94KmxuqljKJqisPxcfL5/FRjTC5jrWdFTkb0nI92f7hYkOmjdkfhujAM/93M90uU3sDz6necMmZNPT6Dvr6+xPf9SwX94yjjXCfKStX0uiDwnhGVpy38va2tbd1ETbB7oaWvq2tWms3OFmtnq2E2qvNBekE79zm7oruBawB7gIA7NpfzB4VvVvHWeHsURU8d6YdTiuPHC/n8GdbIo8BnxiYFZQXwCzcYTSzFJNkQBPmrOIySa42IwtdHO6lAWajIwqF+aDECgZ9/X5DNimxBdLOqhEAZeBfYba3dCZDNZgcqlUprJpOZDrSr6lSgx2DnKjIX+AJqZ+pw48Y4mKwqJsk/nVc3JW2B72mteoc1sl+FjfESD4VRfPskiCPzEObVrcC09j9AXYroKIr+5Pv5WwT5+VikKcpZip4lwMDe/v7A814W0TfBbLPwTka1qBm709rMgDHmw0qlUtkXh40xbUC7sbZFM3SomqNFNQ/khv9mqOAZmBXBLCCLWlT2xedD9ouphcKMzxaL5S0HCLjBbPYydOTaYKLcWy+Cp5gkG7q7uxeopmtQvjqGS8zyPO/cOI6fcLF7YgnDZHUQeKejLJ8kJmcQloxTiJyusAB0ATo0Dzvgh4YHQrXp0P9qDxgWdbwOXCsPleL4JufNjjrgyfaOjuW4gwuOEUVccr3v59sFufowLzUF4VRFTt0XVa0A1gytjQ3H3/1xeNg11Qj74/ZBoVjG4MDWtswDtnz81U4W4QdVfDclk7m/nh5OqVR6zw/jpQh3j+X7Bi52Ll4bjMleCfrKZLDV9/3TgE83iz0Cv/Xj+CI3YDqOOMrD7VM7vr1ly5a97mY4qvGYKEquQbmhKeKXtScMa5chgiA4DyhUEcWfrIdNfQezHgbDML5SkBUIg6McmRY7/64NxWJxj8nYZcB/m16swtImMSVFWFWK4ovXM8q+5aibkE9zbPKvCHJdGMcXNoN4E7EV55q1I4zjVWJ0CdDX4IPLvAMEHGqrTKlhVtezXaUousdaljC0N6haPuVcu5YirrwZ0apTuKjqnsbsZOkakDsZzwTUtecdo5wThnFzzFwnt4ArNbgNr1vltFIU3dw8vqjbnGvWWCOUkqcHK+kXZSjFSGP6kTJ/v4AbzkA88l4dIQrD8LF6ty2O42dSq19Gea2qWRBsdG5d45lQmPwe4ZdV6SDLhsYMFH2vhlF0VRjFBcR8TdFfoYQN0vzdoqw0mezxxThe6zy2GZBHGrThsSAr/Cg+MY7jdc0VB/teApyIqzHlcjkuRfFFiDkT5KkGNOG4np6eKQYgzZrLqSKfmqj8GmiIJd8kSd4eTNPTQUcMWip6j3Pp2tPe3nENsH4Ecf3WUdOm/aXBTU3DMPxzFCVXhHFcMMpCRW9CeaEO+1MZ5QbE9JTi+MZisbjHeWpzkFp7M1BslPYKrBPlkvapHT2lKLqnSV/fVxD9IW51+wgJ6PDZMIqWKLJgeEVuV503eS/oc4Lcbj74oE16enqmDOzt387QkdZP1DmZ1B63va/vzUabdgaedz3CSg5REFnQ35WipGE2Zvu+3yvoyOXEhJ+FYXxbvdvjeV6PEX0WDpG4U/jAWM4txvFLzRpAcrnctLZMZpFm5EyUhUAvMLXGzdiF8AToA8cck3ti06ZNTV+/tlDoOsGm5tWRP6mvhFHypeaxe8YcTTMPDp1orr+FEZQXRWRtxdpHkiR5e7IIiW7PW6ZDbyQ6G7H9oiwvxfFvGv05DOcnvEBEz0c5myN+CE1LIBsEeW44D91LH89DJ0EQzAJ74YiXUdkRRVHD5vDqzudPUcMqkMXDQu41RO8Kw+S+Rpr9zJgxw2tpyYx4atakurZRcnUFQTBLNL1Z4bzhjNk7FB6zVlclSfLWJJsUZru7u+eRpieq4fOizFM4Hph5qAnIGHkX+BfCOmP569Gdnc9PBtF2UKDuyhozYslAFRuHYbK6ycyXIAhOg7QX5KgjNjSpvA98JCJvZzIDb23f/m7IJCaXy01ry2aXKvRgDqfCUO1JU308SZJm24qUKeTzJ6eGUwzSq0MVdY4DWsf5d/oFQhW2YnldRTaKyKZsNrtp27ZtOz95nWZyksEl7q1bAUODvKav9X3xPK+QhZ5UpAC2U0Q6h2fsU9lX4UL5FDJ8wteyC8MOoE8ssRrzZpqmm5Mk6XO30+FwOEavHXzfLxhrZyMyk+EYbLGdAh2ItAKI0qHCLlX2GLRfRT7EUsGwE/Q9sRJJ1m6vVEw0nlV2HA6Hw+FwOBwOh8PhcDgcDsd48j97A1WhyMZmRwAAACV0RVh0ZGF0ZTpjcmVhdGUAMjAyNC0wNy0wOFQxNToyMDo0MSswMDowMJNhDxwAAAAldEVYdGRhdGU6bW9kaWZ5ADIwMjQtMDctMDhUMTU6MjA6NDErMDA6MDDiPLegAAAAAElFTkSuQmCC;" vertex="1" parent="1">
          <mxGeometry x="458.31" y="240" width="63.38" height="78" as="geometry" />
        </mxCell>
      </root>
    </mxGraphModel>
  </diagram>
</mxfile>
